<?xml version="1.0" standalone="no"?><!DOCTYPE svg PUBLIC "-//W3C//DTD SVG 1.1//EN" "http://www.w3.org/Graphics/SVG/1.1/DTD/svg11.dtd" ><svg version="1.1" xmlns="http://www.w3.org/2000/svg"><defs><font horiz-adv-x="0" id="font"><font-face ascent="1638" bbox="-485 -358 2421 1895" cap-height="1434" descent="-410" font-family="BBVA Web Light" font-stretch="normal" font-style="italic" font-weight="600" units-per-em="2048" x-height="1075" /><missing-glyph horiz-adv-x="1024" /><glyph d="M-70 84 692 1434H1034L1212 84V0H899L858 379H381L182 0H-70ZM496 598H834L778 1126H774Z" glyph-name="A" horiz-adv-x="1362" unicode="A" /><glyph d="M-88 84 870 1434H2007L1954 1202H1360L1276 838H1714L1663 618H1225L1135 225H1776L1724 0H764L852 383H426L164 0H-88ZM578 602H901L1040 1202H991Z" glyph-name="AE" horiz-adv-x="1909" unicode="&#198;" /><glyph d="M-70 84 692 1434H1034L1212 84V0H899L858 379H381L182 0H-70ZM496 598H834L778 1126H774ZM766 1542 862 1741H1153V1655L928 1479H766Z" glyph-name="Aacute" horiz-adv-x="1362" unicode="&#193;" /><glyph d="M-70 84 692 1434H1034L1212 84V0H899L858 379H381L182 0H-70ZM496 598H834L778 1126H774ZM569 1554 784 1749H989L1139 1554V1479H971L864 1565L721 1479H569Z" glyph-name="Acircumflex" horiz-adv-x="1362" unicode="&#194;" /><glyph d="M-70 84 692 1434H1034L1212 84V0H899L858 379H381L182 0H-70ZM496 598H834L778 1126H774ZM676 1478Q644 1478 617.5 1489.5Q591 1501 572 1521Q553 1541 543 1567.5Q533 1594 533 1624Q533 1657 546 1685.5Q559 1714 581 1734.5Q603 1755 632.5 1767Q662 1779 694 1779Q726 1779 753 1767.5Q780 1756 799.5 1736Q819 1716 829.5 1689.5Q840 1663 840 1634Q840 1600 826.5 1571.5Q813 1543 790.5 1522Q768 1501 738 1489.5Q708 1478 676 1478ZM1069 1478Q1037 1478 1010.5 1489.5Q984 1501 965 1521Q946 1541 936 1567.5Q926 1594 926 1624Q926 1657 939 1685.5Q952 1714 974.5 1734.5Q997 1755 1026.5 1767Q1056 1779 1088 1779Q1120 1779 1147 1767.5Q1174 1756 1193 1736Q1212 1716 1222.5 1689.5Q1233 1663 1233 1634Q1233 1600 1219.5 1571.5Q1206 1543 1183.5 1522Q1161 1501 1131 1489.5Q1101 1478 1069 1478Z" glyph-name="Adieresis" horiz-adv-x="1362" unicode="&#196;" /><glyph d="M-70 84 692 1434H1034L1212 84V0H899L858 379H381L182 0H-70ZM496 598H834L778 1126H774ZM786 1479 614 1655V1741H897L966 1542V1479Z" glyph-name="Agrave" horiz-adv-x="1362" unicode="&#192;" /><glyph d="M-70 84 692 1434H1034L1212 84V0H899L858 379H381L182 0H-70ZM496 598H834L778 1126H774ZM873 1610Q908 1610 931.5 1634Q955 1658 955 1696Q955 1730 935 1749Q915 1768 883 1768Q848 1768 826.5 1744Q805 1720 805 1678Q805 1647 823 1628.5Q841 1610 873 1610ZM871 1483Q828 1483 790 1496Q752 1509 724 1534Q696 1559 680 1595Q664 1631 664 1676Q664 1726 682.5 1766.5Q701 1807 732 1835.5Q763 1864 803 1879.5Q843 1895 887 1895Q930 1895 968 1881.5Q1006 1868 1034 1842.5Q1062 1817 1078 1780.5Q1094 1744 1094 1698Q1094 1648 1075.5 1608Q1057 1568 1026.5 1540.5Q996 1513 955.5 1498Q915 1483 871 1483Z" glyph-name="Aring" horiz-adv-x="1362" unicode="&#197;" /><glyph d="M-70 84 692 1434H1034L1212 84V0H899L858 379H381L182 0H-70ZM496 598H834L778 1126H774ZM987 1481Q951 1481 920.5 1490Q890 1499 863.5 1509.5Q837 1520 815 1529Q793 1538 774 1538Q745 1538 728 1523Q711 1508 700 1479H547V1557Q579 1653 634.5 1701Q690 1749 772 1749Q808 1749 839 1740.5Q870 1732 896.5 1722.5Q923 1713 945.5 1704.5Q968 1696 987 1696Q1015 1696 1030.5 1710.5Q1046 1725 1059 1751H1212V1674Q1147 1481 987 1481Z" glyph-name="Atilde" horiz-adv-x="1362" unicode="&#195;" /><glyph d="M338 1434H760Q871 1434 958.5 1411.5Q1046 1389 1107 1344.5Q1168 1300 1200.5 1234.5Q1233 1169 1233 1083Q1233 1011 1210.5 954.5Q1188 898 1147.5 856Q1107 814 1050.5 785.5Q994 757 926 741V733Q1033 710 1096 640.5Q1159 571 1159 449Q1159 331 1111 246Q1063 161 980.5 106.5Q898 52 788.5 26Q679 0 557 0H321H8ZM578 225Q636 225 684.5 239Q733 253 768 282Q803 311 822.5 356Q842 401 842 463Q842 544 793 592.5Q744 641 645 641H469L373 225ZM674 852Q725 852 770.5 862Q816 872 850.5 895.5Q885 919 905.5 958.5Q926 998 926 1057Q926 1126 880.5 1167Q835 1208 739 1208H600L520 852Z" glyph-name="B" horiz-adv-x="1245" unicode="B" /><glyph d="M715 -16Q578 -16 463.5 18.5Q349 53 266.5 124Q184 195 138 303.5Q92 412 92 561Q92 672 116 781Q140 890 187.5 988.5Q235 1087 304.5 1171.5Q374 1256 465.5 1318Q557 1380 669 1415Q781 1450 913 1450Q1041 1450 1138 1424.5Q1235 1399 1311 1348L1262 1135H1149Q1104 1175 1043.5 1197Q983 1219 899 1219Q810 1219 740 1188.5Q670 1158 616.5 1106.5Q563 1055 525 987.5Q487 920 463.5 846.5Q440 773 429 698Q418 623 418 557Q418 465 439.5 399Q461 333 501 291Q541 249 599 229Q657 209 731 209Q818 209 887 234Q956 259 1016 301H1137L1083 70Q1052 52 1014.5 36.5Q977 21 932 9.5Q887 -2 833 -9Q779 -16 715 -16Z" glyph-name="C" horiz-adv-x="1264" unicode="C" /><glyph d="M715 -16Q698 -16 680.5 -15Q663 -14 647 -14L639 -49Q673 -51 698 -61.5Q723 -72 739.5 -90Q756 -108 764 -131.5Q772 -155 772 -182Q772 -233 752 -267Q732 -301 699.5 -321.5Q667 -342 625.5 -350Q584 -358 541 -358Q507 -358 482 -355.5Q457 -353 437 -347.5Q417 -342 401.5 -334.5Q386 -327 371 -317L397 -203H457Q465 -215 481 -223Q497 -231 528 -231Q554 -231 573 -222.5Q592 -214 592 -193Q592 -176 577.5 -166Q563 -156 526 -156H473L510 4Q415 26 337.5 71.5Q260 117 205.5 186Q151 255 121.5 348.5Q92 442 92 561Q92 672 116 781Q140 890 187.5 988.5Q235 1087 304.5 1171.5Q374 1256 465.5 1318Q557 1380 669 1415Q781 1450 913 1450Q1041 1450 1138 1424.5Q1235 1399 1311 1348L1262 1135H1149Q1104 1175 1043.5 1197Q983 1219 899 1219Q810 1219 740 1188.5Q670 1158 616.5 1106.5Q563 1055 525 987.5Q487 920 463.5 846.5Q440 773 429 698Q418 623 418 557Q418 465 439.5 399Q461 333 501 291Q541 249 599 229Q657 209 731 209Q818 209 887 234Q956 259 1016 301H1137L1083 70Q1052 52 1014.5 36.5Q977 21 932 9.5Q887 -2 833 -9Q779 -16 715 -16Z" glyph-name="Ccedilla" horiz-adv-x="1264" unicode="&#199;" /><glyph d="M588 225Q682 225 754.5 253Q827 281 880.5 329Q934 377 970.5 440Q1007 503 1029.5 572Q1052 641 1061.5 712Q1071 783 1071 848Q1071 921 1056.5 986Q1042 1051 1007.5 1099.5Q973 1148 915.5 1176Q858 1204 772 1204H604L379 225ZM338 1434H778Q924 1434 1039 1395.5Q1154 1357 1234 1282.5Q1314 1208 1356.5 1098.5Q1399 989 1399 848Q1399 742 1377 637.5Q1355 533 1310.5 439Q1266 345 1199 264.5Q1132 184 1043 125Q954 66 843 33Q732 0 598 0H323H8Z" glyph-name="D" horiz-adv-x="1417" unicode="D" /><glyph d="M338 1434H1251L1198 1202H604L520 838H958L907 618H469L379 225H1020L969 0H327H8Z" glyph-name="E" horiz-adv-x="1153" unicode="E" /><glyph d="M338 1434H1251L1198 1202H604L520 838H958L907 618H469L379 225H1020L969 0H327H8ZM701 1542 797 1741H1088V1655L863 1479H701Z" glyph-name="Eacute" horiz-adv-x="1153" unicode="&#201;" /><glyph d="M338 1434H1251L1198 1202H604L520 838H958L907 618H469L379 225H1020L969 0H327H8ZM504 1554 719 1749H924L1074 1554V1479H906L799 1565L656 1479H504Z" glyph-name="Ecircumflex" horiz-adv-x="1153" unicode="&#202;" /><glyph d="M338 1434H1251L1198 1202H604L520 838H958L907 618H469L379 225H1020L969 0H327H8ZM629 1478Q597 1478 570.5 1489.5Q544 1501 525 1521Q506 1541 496 1567.5Q486 1594 486 1624Q486 1657 499 1685.5Q512 1714 534 1734.5Q556 1755 585.5 1767Q615 1779 647 1779Q679 1779 706 1767.5Q733 1756 752.5 1736Q772 1716 782.5 1689.5Q793 1663 793 1634Q793 1600 779.5 1571.5Q766 1543 743.5 1522Q721 1501 691 1489.5Q661 1478 629 1478ZM1022 1478Q990 1478 963.5 1489.5Q937 1501 918 1521Q899 1541 889 1567.5Q879 1594 879 1624Q879 1657 892 1685.5Q905 1714 927.5 1734.5Q950 1755 979.5 1767Q1009 1779 1041 1779Q1073 1779 1100 1767.5Q1127 1756 1146 1736Q1165 1716 1175.5 1689.5Q1186 1663 1186 1634Q1186 1600 1172.5 1571.5Q1159 1543 1136.5 1522Q1114 1501 1084 1489.5Q1054 1478 1022 1478Z" glyph-name="Edieresis" horiz-adv-x="1153" unicode="&#203;" /><glyph d="M338 1434H1251L1198 1202H604L520 838H958L907 618H469L379 225H1020L969 0H327H8ZM721 1479 549 1655V1741H832L901 1542V1479Z" glyph-name="Egrave" horiz-adv-x="1153" unicode="&#200;" /><glyph d="M72 823H197L338 1434H778Q924 1434 1039 1395.5Q1154 1357 1234 1282.5Q1314 1208 1356.5 1098.5Q1399 989 1399 848Q1399 742 1377 637.5Q1355 533 1310.5 439Q1266 345 1199 264.5Q1132 184 1043 125Q954 66 843 33Q732 0 598 0H323H8L147 604H23ZM588 225Q682 225 754.5 253Q827 281 880.5 329Q934 377 970.5 440Q1007 503 1029.5 572Q1052 641 1061.5 712Q1071 783 1071 848Q1071 921 1056.5 986Q1042 1051 1007.5 1099.5Q973 1148 915.5 1176Q858 1204 772 1204H604L516 823H821L772 604H465L379 225Z" glyph-name="Eth" horiz-adv-x="1421" unicode="&#208;" /><glyph d="M154 952H264Q309 1057 376 1147.5Q443 1238 532.5 1305.5Q622 1373 733.5 1411.5Q845 1450 979 1450Q1043 1450 1094 1444.5Q1145 1439 1187 1427.5Q1229 1416 1264.5 1399.5Q1300 1383 1333 1362L1284 1151H1169Q1125 1189 1078 1205Q1031 1221 961 1221Q892 1221 834 1201.5Q776 1182 729 1146.5Q682 1111 645 1061.5Q608 1012 580 952H979L913 774H518Q512 746 507.5 717.5Q503 689 500 662H868L803 483H492Q494 409 511 357Q528 305 559.5 272Q591 239 638.5 224Q686 209 750 209Q836 209 901 235Q966 261 1020 301H1124L1075 78Q1013 41 926 12.5Q839 -16 719 -16Q605 -16 508 13.5Q411 43 338.5 104.5Q266 166 223 260Q180 354 176 483H45L86 662H186Q189 689 194 717.5Q199 746 207 774H113Z" glyph-name="Euro" horiz-adv-x="1229" unicode="&#8364;" /><glyph d="M338 1434H1270L1217 1202H604L512 807H995L946 588H463L328 0H8Z" glyph-name="F" horiz-adv-x="1116" unicode="F" /><glyph d="M721 -16Q588 -16 473 16Q358 48 273.5 116.5Q189 185 140.5 291.5Q92 398 92 547Q92 660 116 771.5Q140 883 187 983Q234 1083 304 1168.5Q374 1254 466 1316.5Q558 1379 671.5 1414.5Q785 1450 920 1450Q1048 1450 1152 1424.5Q1256 1399 1341 1343L1290 1124H1182Q1129 1172 1062.5 1195.5Q996 1219 899 1219Q811 1219 741.5 1189Q672 1159 618.5 1107.5Q565 1056 526.5 988.5Q488 921 463.5 845.5Q439 770 427.5 691Q416 612 416 539Q416 460 433.5 397.5Q451 335 489.5 292Q528 249 588.5 226Q649 203 735 203Q817 203 874 221L948 541H750L797 748H994H1309L1155 78Q1123 59 1077.5 42Q1032 25 976.5 12Q921 -1 856.5 -8.5Q792 -16 721 -16Z" glyph-name="G" horiz-adv-x="1368" unicode="G" /><glyph d="M338 1434H657L522 844H1049L1184 1434H1503L1174 0H854L997 618H469L328 0H8Z" glyph-name="H" horiz-adv-x="1419" unicode="H" /><glyph d="M344 1434H666L336 0H14Z" glyph-name="I" horiz-adv-x="588" unicode="I" /><glyph d="M344 1434H666L336 0H14ZM417 1542 513 1741H804V1655L579 1479H417Z" glyph-name="Iacute" horiz-adv-x="588" unicode="&#205;" /><glyph d="M344 1434H666L336 0H14ZM220 1554 435 1749H640L790 1554V1479H622L515 1565L372 1479H220Z" glyph-name="Icircumflex" horiz-adv-x="588" unicode="&#206;" /><glyph d="M344 1434H666L336 0H14ZM329 1478Q297 1478 270.5 1489.5Q244 1501 225 1521Q206 1541 196 1567.5Q186 1594 186 1624Q186 1657 199 1685.5Q212 1714 234 1734.5Q256 1755 285.5 1767Q315 1779 347 1779Q379 1779 406 1767.5Q433 1756 452.5 1736Q472 1716 482.5 1689.5Q493 1663 493 1634Q493 1600 479.5 1571.5Q466 1543 443.5 1522Q421 1501 391 1489.5Q361 1478 329 1478ZM722 1478Q690 1478 663.5 1489.5Q637 1501 618 1521Q599 1541 589 1567.5Q579 1594 579 1624Q579 1657 592 1685.5Q605 1714 627.5 1734.5Q650 1755 679.5 1767Q709 1779 741 1779Q773 1779 800 1767.5Q827 1756 846 1736Q865 1716 875.5 1689.5Q886 1663 886 1634Q886 1600 872.5 1571.5Q859 1543 836.5 1522Q814 1501 784 1489.5Q754 1478 722 1478Z" glyph-name="Idieresis" horiz-adv-x="588" unicode="&#207;" /><glyph d="M344 1434H666L336 0H14ZM437 1479 265 1655V1741H548L617 1542V1479Z" glyph-name="Igrave" horiz-adv-x="588" unicode="&#204;" /><glyph d="M289 -16Q224 -16 171.5 -8Q119 0 76 13.5Q33 27 0 43.5Q-33 60 -57 78L-8 291H96Q108 276 124.5 262Q141 248 163.5 237Q186 226 213.5 219.5Q241 213 274 213Q359 213 402.5 256Q446 299 465 381L707 1434H1028L774 334Q756 256 718.5 191.5Q681 127 621.5 81Q562 35 479.5 9.5Q397 -16 289 -16Z" glyph-name="J" horiz-adv-x="936" unicode="J" /><glyph d="M338 1434H657L506 774L1157 1434H1427V1348L895 829L1196 86V0H897L653 614L418 389L328 0H8Z" glyph-name="K" horiz-adv-x="1337" unicode="K" /><glyph d="M338 1434H657L379 225H956L905 0H327H8Z" glyph-name="L" horiz-adv-x="1094" unicode="L" /><glyph d="M25 643 168 692 338 1434H657L514 815L926 961L874 731L461 586L379 225H956L905 0H327H8L115 463L-27 414Z" glyph-name="Lslash" horiz-adv-x="1094" unicode="&#321;" /><glyph d="M338 1434H754L834 481H840L1354 1434H1794L1464 0H1149L1399 1085H1393L801 0H608L522 1085H516L266 0H8Z" glyph-name="M" horiz-adv-x="1710" unicode="M" /><glyph d="M338 1434H700L1001 516H1008L1221 1434H1489L1159 0H868L520 1042H514L274 0H8Z" glyph-name="N" horiz-adv-x="1405" unicode="N" /><glyph d="M338 1434H700L1001 516H1008L1221 1434H1489L1159 0H868L520 1042H514L274 0H8ZM1088 1481Q1052 1481 1021.5 1490Q991 1499 964.5 1509.5Q938 1520 916 1529Q894 1538 875 1538Q846 1538 829 1523Q812 1508 801 1479H648V1557Q680 1653 735.5 1701Q791 1749 873 1749Q909 1749 940 1740.5Q971 1732 997.5 1722.5Q1024 1713 1046.5 1704.5Q1069 1696 1088 1696Q1116 1696 1131.5 1710.5Q1147 1725 1160 1751H1313V1674Q1248 1481 1088 1481Z" glyph-name="Ntilde" horiz-adv-x="1405" unicode="&#209;" /><glyph d="M717 205Q793 205 855 234.5Q917 264 965 313.5Q1013 363 1048 428.5Q1083 494 1106 565.5Q1129 637 1140 710.5Q1151 784 1151 850Q1151 921 1137 989Q1123 1057 1088.5 1110.5Q1054 1164 997 1196.5Q940 1229 854 1229Q777 1229 714.5 1198.5Q652 1168 603.5 1117.5Q555 1067 520 1001Q485 935 462.5 863Q440 791 429 718Q418 645 418 582Q418 503 434 434Q450 365 486 314Q522 263 579 234Q636 205 717 205ZM707 -16Q565 -16 451 28Q337 72 257.5 151.5Q178 231 135 343Q92 455 92 590Q92 701 116 808.5Q140 916 186.5 1011.5Q233 1107 299.5 1187.5Q366 1268 451.5 1326.5Q537 1385 639.5 1417.5Q742 1450 860 1450Q1001 1450 1115.5 1405.5Q1230 1361 1310 1281Q1390 1201 1433.5 1089.5Q1477 978 1477 844Q1477 738 1454 632.5Q1431 527 1386.5 431.5Q1342 336 1276.5 254Q1211 172 1125.5 112Q1040 52 935 18Q830 -16 707 -16Z" glyph-name="O" horiz-adv-x="1495" unicode="O" /><glyph d="M92 571Q92 677 114 782.5Q136 888 180.5 984Q225 1080 292 1162.5Q359 1245 448 1305Q537 1365 648 1399.5Q759 1434 893 1434H2075L2021 1202H1427L1343 838H1782L1731 618H1292L1202 225H1843L1792 0H735Q568 0 447 36.5Q326 73 247 144.5Q168 216 130 323Q92 430 92 571ZM420 571Q420 497 432 434Q444 371 479 324.5Q514 278 577 251.5Q640 225 741 225H883L1108 1204H901Q807 1204 734.5 1175Q662 1146 608.5 1097Q555 1048 519 984Q483 920 461 849.5Q439 779 429.5 707Q420 635 420 571Z" glyph-name="OE" horiz-adv-x="1976" unicode="&#338;" /><glyph d="M717 205Q793 205 855 234.5Q917 264 965 313.5Q1013 363 1048 428.5Q1083 494 1106 565.5Q1129 637 1140 710.5Q1151 784 1151 850Q1151 921 1137 989Q1123 1057 1088.5 1110.5Q1054 1164 997 1196.5Q940 1229 854 1229Q777 1229 714.5 1198.5Q652 1168 603.5 1117.5Q555 1067 520 1001Q485 935 462.5 863Q440 791 429 718Q418 645 418 582Q418 503 434 434Q450 365 486 314Q522 263 579 234Q636 205 717 205ZM707 -16Q565 -16 451 28Q337 72 257.5 151.5Q178 231 135 343Q92 455 92 590Q92 701 116 808.5Q140 916 186.5 1011.5Q233 1107 299.5 1187.5Q366 1268 451.5 1326.5Q537 1385 639.5 1417.5Q742 1450 860 1450Q1001 1450 1115.5 1405.5Q1230 1361 1310 1281Q1390 1201 1433.5 1089.5Q1477 978 1477 844Q1477 738 1454 632.5Q1431 527 1386.5 431.5Q1342 336 1276.5 254Q1211 172 1125.5 112Q1040 52 935 18Q830 -16 707 -16ZM797 1542 893 1741H1184V1655L959 1479H797Z" glyph-name="Oacute" horiz-adv-x="1495" unicode="&#211;" /><glyph d="M717 205Q793 205 855 234.5Q917 264 965 313.5Q1013 363 1048 428.5Q1083 494 1106 565.5Q1129 637 1140 710.5Q1151 784 1151 850Q1151 921 1137 989Q1123 1057 1088.5 1110.5Q1054 1164 997 1196.5Q940 1229 854 1229Q777 1229 714.5 1198.5Q652 1168 603.5 1117.5Q555 1067 520 1001Q485 935 462.5 863Q440 791 429 718Q418 645 418 582Q418 503 434 434Q450 365 486 314Q522 263 579 234Q636 205 717 205ZM707 -16Q565 -16 451 28Q337 72 257.5 151.5Q178 231 135 343Q92 455 92 590Q92 701 116 808.5Q140 916 186.5 1011.5Q233 1107 299.5 1187.5Q366 1268 451.5 1326.5Q537 1385 639.5 1417.5Q742 1450 860 1450Q1001 1450 1115.5 1405.5Q1230 1361 1310 1281Q1390 1201 1433.5 1089.5Q1477 978 1477 844Q1477 738 1454 632.5Q1431 527 1386.5 431.5Q1342 336 1276.5 254Q1211 172 1125.5 112Q1040 52 935 18Q830 -16 707 -16ZM600 1554 815 1749H1020L1170 1554V1479H1002L895 1565L752 1479H600Z" glyph-name="Ocircumflex" horiz-adv-x="1495" unicode="&#212;" /><glyph d="M717 205Q793 205 855 234.5Q917 264 965 313.5Q1013 363 1048 428.5Q1083 494 1106 565.5Q1129 637 1140 710.5Q1151 784 1151 850Q1151 921 1137 989Q1123 1057 1088.5 1110.5Q1054 1164 997 1196.5Q940 1229 854 1229Q777 1229 714.5 1198.5Q652 1168 603.5 1117.5Q555 1067 520 1001Q485 935 462.5 863Q440 791 429 718Q418 645 418 582Q418 503 434 434Q450 365 486 314Q522 263 579 234Q636 205 717 205ZM707 -16Q565 -16 451 28Q337 72 257.5 151.5Q178 231 135 343Q92 455 92 590Q92 701 116 808.5Q140 916 186.5 1011.5Q233 1107 299.5 1187.5Q366 1268 451.5 1326.5Q537 1385 639.5 1417.5Q742 1450 860 1450Q1001 1450 1115.5 1405.5Q1230 1361 1310 1281Q1390 1201 1433.5 1089.5Q1477 978 1477 844Q1477 738 1454 632.5Q1431 527 1386.5 431.5Q1342 336 1276.5 254Q1211 172 1125.5 112Q1040 52 935 18Q830 -16 707 -16ZM718 1478Q686 1478 659.5 1489.5Q633 1501 614 1521Q595 1541 585 1567.5Q575 1594 575 1624Q575 1657 588 1685.5Q601 1714 623 1734.5Q645 1755 674.5 1767Q704 1779 736 1779Q768 1779 795 1767.5Q822 1756 841.5 1736Q861 1716 871.5 1689.5Q882 1663 882 1634Q882 1600 868.5 1571.5Q855 1543 832.5 1522Q810 1501 780 1489.5Q750 1478 718 1478ZM1111 1478Q1079 1478 1052.5 1489.5Q1026 1501 1007 1521Q988 1541 978 1567.5Q968 1594 968 1624Q968 1657 981 1685.5Q994 1714 1016.5 1734.5Q1039 1755 1068.5 1767Q1098 1779 1130 1779Q1162 1779 1189 1767.5Q1216 1756 1235 1736Q1254 1716 1264.5 1689.5Q1275 1663 1275 1634Q1275 1600 1261.5 1571.5Q1248 1543 1225.5 1522Q1203 1501 1173 1489.5Q1143 1478 1111 1478Z" glyph-name="Odieresis" horiz-adv-x="1495" unicode="&#214;" /><glyph d="M717 205Q793 205 855 234.5Q917 264 965 313.5Q1013 363 1048 428.5Q1083 494 1106 565.5Q1129 637 1140 710.5Q1151 784 1151 850Q1151 921 1137 989Q1123 1057 1088.5 1110.5Q1054 1164 997 1196.5Q940 1229 854 1229Q777 1229 714.5 1198.5Q652 1168 603.5 1117.5Q555 1067 520 1001Q485 935 462.5 863Q440 791 429 718Q418 645 418 582Q418 503 434 434Q450 365 486 314Q522 263 579 234Q636 205 717 205ZM707 -16Q565 -16 451 28Q337 72 257.5 151.5Q178 231 135 343Q92 455 92 590Q92 701 116 808.5Q140 916 186.5 1011.5Q233 1107 299.5 1187.5Q366 1268 451.5 1326.5Q537 1385 639.5 1417.5Q742 1450 860 1450Q1001 1450 1115.5 1405.5Q1230 1361 1310 1281Q1390 1201 1433.5 1089.5Q1477 978 1477 844Q1477 738 1454 632.5Q1431 527 1386.5 431.5Q1342 336 1276.5 254Q1211 172 1125.5 112Q1040 52 935 18Q830 -16 707 -16ZM817 1479 645 1655V1741H928L997 1542V1479Z" glyph-name="Ograve" horiz-adv-x="1495" unicode="&#210;" /><glyph d="M707 -16Q600 -16 510 10Q420 36 348 84L238 -39H39V16L213 209Q154 287 123 383.5Q92 480 92 590Q92 701 116 808.5Q140 916 186.5 1011.5Q233 1107 299.5 1187.5Q366 1268 451.5 1326.5Q537 1385 639.5 1417.5Q742 1450 860 1450Q969 1450 1060.5 1422Q1152 1394 1227 1343L1329 1456H1528V1401L1362 1214Q1418 1139 1447.5 1044.5Q1477 950 1477 844Q1477 738 1454.5 632.5Q1432 527 1387.5 431.5Q1343 336 1277.5 254Q1212 172 1126.5 112Q1041 52 936 18Q831 -16 707 -16ZM412 582Q412 544 414 510Q416 476 422 444L1059 1155Q1025 1189 974 1209Q923 1229 854 1229Q777 1229 714 1198.5Q651 1168 602 1117.5Q553 1067 517 1001Q481 935 458 863Q435 791 423.5 718Q412 645 412 582ZM721 203Q798 203 860 232.5Q922 262 970.5 312Q1019 362 1054 427.5Q1089 493 1112 565Q1135 637 1146 710.5Q1157 784 1157 850Q1157 882 1154.5 913Q1152 944 1147 975L512 266Q547 235 598.5 219Q650 203 721 203Z" glyph-name="Oslash" horiz-adv-x="1495" unicode="&#216;" /><glyph d="M717 205Q793 205 855 234.5Q917 264 965 313.5Q1013 363 1048 428.5Q1083 494 1106 565.5Q1129 637 1140 710.5Q1151 784 1151 850Q1151 921 1137 989Q1123 1057 1088.5 1110.5Q1054 1164 997 1196.5Q940 1229 854 1229Q777 1229 714.5 1198.5Q652 1168 603.5 1117.5Q555 1067 520 1001Q485 935 462.5 863Q440 791 429 718Q418 645 418 582Q418 503 434 434Q450 365 486 314Q522 263 579 234Q636 205 717 205ZM707 -16Q565 -16 451 28Q337 72 257.5 151.5Q178 231 135 343Q92 455 92 590Q92 701 116 808.5Q140 916 186.5 1011.5Q233 1107 299.5 1187.5Q366 1268 451.5 1326.5Q537 1385 639.5 1417.5Q742 1450 860 1450Q1001 1450 1115.5 1405.5Q1230 1361 1310 1281Q1390 1201 1433.5 1089.5Q1477 978 1477 844Q1477 738 1454 632.5Q1431 527 1386.5 431.5Q1342 336 1276.5 254Q1211 172 1125.5 112Q1040 52 935 18Q830 -16 707 -16ZM1020 1481Q984 1481 953.5 1490Q923 1499 896.5 1509.5Q870 1520 848 1529Q826 1538 807 1538Q778 1538 761 1523Q744 1508 733 1479H580V1557Q612 1653 667.5 1701Q723 1749 805 1749Q841 1749 872 1740.5Q903 1732 929.5 1722.5Q956 1713 978.5 1704.5Q1001 1696 1020 1696Q1048 1696 1063.5 1710.5Q1079 1725 1092 1751H1245V1674Q1180 1481 1020 1481Z" glyph-name="Otilde" horiz-adv-x="1495" unicode="&#213;" /><glyph d="M338 1434H762Q1011 1434 1136.5 1330.5Q1262 1227 1262 1028Q1262 898 1218 802Q1174 706 1091.5 643Q1009 580 891 549Q773 518 625 518H446L328 0H8ZM641 733Q716 733 774.5 750Q833 767 873 804Q913 841 933.5 899Q954 957 954 1038Q954 1077 943 1107.5Q932 1138 907 1159.5Q882 1181 841 1192.5Q800 1204 739 1204H604L496 733Z" glyph-name="P" horiz-adv-x="1221" unicode="P" /><glyph d="M631 -55Q497 -12 396 47Q295 106 227.5 185Q160 264 126 364Q92 464 92 590Q92 701 116 808.5Q140 916 186.5 1011.5Q233 1107 299.5 1187.5Q366 1268 451.5 1326.5Q537 1385 639.5 1417.5Q742 1450 860 1450Q1001 1450 1115.5 1405.5Q1230 1361 1310 1281Q1390 1201 1433.5 1089.5Q1477 978 1477 844Q1477 706 1445 583Q1413 460 1350 359.5Q1287 259 1193 185Q1099 111 975 72V66L1397 -6L1341 -248H1219ZM721 203Q798 203 859.5 232.5Q921 262 969 312Q1017 362 1051.5 427.5Q1086 493 1108 565Q1130 637 1140.5 710.5Q1151 784 1151 850Q1151 921 1137 989Q1123 1057 1088.5 1110.5Q1054 1164 997 1196.5Q940 1229 854 1229Q777 1229 714.5 1198.5Q652 1168 603.5 1117.5Q555 1067 520 1001Q485 935 462.5 863Q440 791 429 718Q418 645 418 582Q418 503 433 434Q448 365 483.5 313.5Q519 262 577 232.5Q635 203 721 203Z" glyph-name="Q" horiz-adv-x="1495" unicode="Q" /><glyph d="M629 561H457L328 0H8L338 1434H772Q1024 1434 1147 1327Q1270 1220 1270 1022Q1270 943 1245 876Q1220 809 1174.5 755Q1129 701 1065 661Q1001 621 924 596L1139 84V0H850ZM670 776Q812 776 887.5 840.5Q963 905 963 1038Q963 1076 952.5 1106.5Q942 1137 917 1159Q892 1181 851 1192.5Q810 1204 750 1204H604L506 776Z" glyph-name="R" horiz-adv-x="1286" unicode="R" /><glyph d="M455 -16Q368 -16 296 -3.5Q224 9 165.5 30.5Q107 52 62 79.5Q17 107 -16 137L33 356H139Q164 324 195 297.5Q226 271 266 252Q306 233 355.5 222Q405 211 467 211Q513 211 557.5 221Q602 231 637 254Q672 277 693.5 315.5Q715 354 715 410Q715 450 699 477Q683 504 651.5 525.5Q620 547 574 566Q528 585 469 608Q397 636 340 671Q283 706 244 752Q205 798 184.5 857Q164 916 164 991Q164 1100 201 1185.5Q238 1271 306 1329.5Q374 1388 469.5 1419Q565 1450 682 1450Q818 1450 924 1413Q1030 1376 1110 1313L1061 1106H956Q927 1134 896.5 1155.5Q866 1177 831 1192Q796 1207 755 1215Q714 1223 664 1223Q622 1223 583.5 1213Q545 1203 515 1181Q485 1159 467 1125.5Q449 1092 449 1044Q449 1006 461.5 979.5Q474 953 501.5 932Q529 911 574.5 891Q620 871 686 846Q758 818 818.5 785.5Q879 753 922.5 708Q966 663 990 602.5Q1014 542 1014 459Q1014 343 974 254.5Q934 166 861 106Q788 46 685 15Q582 -16 455 -16Z" glyph-name="S" horiz-adv-x="1085" unicode="S" /><glyph d="M455 -16Q368 -16 296 -3.5Q224 9 165.5 30.5Q107 52 62 79.5Q17 107 -16 137L33 356H139Q164 324 195 297.5Q226 271 266 252Q306 233 355.5 222Q405 211 467 211Q513 211 557.5 221Q602 231 637 254Q672 277 693.5 315.5Q715 354 715 410Q715 450 699 477Q683 504 651.5 525.5Q620 547 574 566Q528 585 469 608Q397 636 340 671Q283 706 244 752Q205 798 184.5 857Q164 916 164 991Q164 1100 201 1185.5Q238 1271 306 1329.5Q374 1388 469.5 1419Q565 1450 682 1450Q818 1450 924 1413Q1030 1376 1110 1313L1061 1106H956Q927 1134 896.5 1155.5Q866 1177 831 1192Q796 1207 755 1215Q714 1223 664 1223Q622 1223 583.5 1213Q545 1203 515 1181Q485 1159 467 1125.5Q449 1092 449 1044Q449 1006 461.5 979.5Q474 953 501.5 932Q529 911 574.5 891Q620 871 686 846Q758 818 818.5 785.5Q879 753 922.5 708Q966 663 990 602.5Q1014 542 1014 459Q1014 343 974 254.5Q934 166 861 106Q788 46 685 15Q582 -16 455 -16ZM1014 1673 798 1479H594L444 1673V1749H612L719 1663L862 1749H1014Z" glyph-name="Scaron" horiz-adv-x="1085" unicode="&#352;" /><glyph d="M582 1208H199L250 1434H1335L1284 1208H901L623 0H303Z" glyph-name="T" horiz-adv-x="1169" unicode="T" /><glyph d="M338 1434H657L596 1169H705Q953 1169 1078.5 1067Q1204 965 1204 778Q1204 656 1160 563.5Q1116 471 1034 408.5Q952 346 833.5 314.5Q715 283 567 283H391L328 0H8ZM584 498Q734 498 815.5 566.5Q897 635 897 788Q897 824 886 852.5Q875 881 850 900.5Q825 920 784 930Q743 940 682 940H543L440 498Z" glyph-name="Thorn" horiz-adv-x="1210" unicode="&#222;" /><glyph d="M635 -16Q492 -16 383 24Q274 64 206.5 140Q139 216 117.5 327Q96 438 129 580L326 1434H645L438 541Q423 475 425 416.5Q427 358 452 314Q477 270 528 244.5Q579 219 662 219Q727 219 778 236Q829 253 867.5 289Q906 325 933.5 381.5Q961 438 979 518L1190 1434H1456L1241 500Q1214 385 1167.5 290Q1121 195 1048.5 127Q976 59 874 21.5Q772 -16 635 -16Z" glyph-name="U" horiz-adv-x="1364" unicode="U" /><glyph d="M635 -16Q492 -16 383 24Q274 64 206.5 140Q139 216 117.5 327Q96 438 129 580L326 1434H645L438 541Q423 475 425 416.5Q427 358 452 314Q477 270 528 244.5Q579 219 662 219Q727 219 778 236Q829 253 867.5 289Q906 325 933.5 381.5Q961 438 979 518L1190 1434H1456L1241 500Q1214 385 1167.5 290Q1121 195 1048.5 127Q976 59 874 21.5Q772 -16 635 -16ZM821 1542 917 1741H1208V1655L983 1479H821Z" glyph-name="Uacute" horiz-adv-x="1364" unicode="&#218;" /><glyph d="M635 -16Q492 -16 383 24Q274 64 206.5 140Q139 216 117.5 327Q96 438 129 580L326 1434H645L438 541Q423 475 425 416.5Q427 358 452 314Q477 270 528 244.5Q579 219 662 219Q727 219 778 236Q829 253 867.5 289Q906 325 933.5 381.5Q961 438 979 518L1190 1434H1456L1241 500Q1214 385 1167.5 290Q1121 195 1048.5 127Q976 59 874 21.5Q772 -16 635 -16ZM624 1554 839 1749H1044L1194 1554V1479H1026L919 1565L776 1479H624Z" glyph-name="Ucircumflex" horiz-adv-x="1364" unicode="&#219;" /><glyph d="M635 -16Q492 -16 383 24Q274 64 206.5 140Q139 216 117.5 327Q96 438 129 580L326 1434H645L438 541Q423 475 425 416.5Q427 358 452 314Q477 270 528 244.5Q579 219 662 219Q727 219 778 236Q829 253 867.5 289Q906 325 933.5 381.5Q961 438 979 518L1190 1434H1456L1241 500Q1214 385 1167.5 290Q1121 195 1048.5 127Q976 59 874 21.5Q772 -16 635 -16ZM730 1478Q698 1478 671.5 1489.5Q645 1501 626 1521Q607 1541 597 1567.5Q587 1594 587 1624Q587 1657 600 1685.5Q613 1714 635 1734.5Q657 1755 686.5 1767Q716 1779 748 1779Q780 1779 807 1767.5Q834 1756 853.5 1736Q873 1716 883.5 1689.5Q894 1663 894 1634Q894 1600 880.5 1571.5Q867 1543 844.5 1522Q822 1501 792 1489.5Q762 1478 730 1478ZM1123 1478Q1091 1478 1064.5 1489.5Q1038 1501 1019 1521Q1000 1541 990 1567.5Q980 1594 980 1624Q980 1657 993 1685.5Q1006 1714 1028.5 1734.5Q1051 1755 1080.5 1767Q1110 1779 1142 1779Q1174 1779 1201 1767.5Q1228 1756 1247 1736Q1266 1716 1276.5 1689.5Q1287 1663 1287 1634Q1287 1600 1273.5 1571.5Q1260 1543 1237.5 1522Q1215 1501 1185 1489.5Q1155 1478 1123 1478Z" glyph-name="Udieresis" horiz-adv-x="1364" unicode="&#220;" /><glyph d="M635 -16Q492 -16 383 24Q274 64 206.5 140Q139 216 117.5 327Q96 438 129 580L326 1434H645L438 541Q423 475 425 416.5Q427 358 452 314Q477 270 528 244.5Q579 219 662 219Q727 219 778 236Q829 253 867.5 289Q906 325 933.5 381.5Q961 438 979 518L1190 1434H1456L1241 500Q1214 385 1167.5 290Q1121 195 1048.5 127Q976 59 874 21.5Q772 -16 635 -16ZM842 1479 670 1655V1741H953L1022 1542V1479Z" glyph-name="Ugrave" horiz-adv-x="1364" unicode="&#217;" /><glyph d="M231 1350V1434H537L631 369H635L1208 1434H1458V1350L702 0H375Z" glyph-name="V" horiz-adv-x="1307" unicode="V" /><glyph d="M238 1350V1434H537L545 393H549L1022 1434H1292L1298 393H1303L1757 1434H2021V1350L1389 0H1034L1042 938H1038L623 0H266Z" glyph-name="W" horiz-adv-x="1878" unicode="W" /><glyph d="M-31 90 508 748 264 1343V1434H567L760 926L1145 1434H1403V1343L907 725L1165 90V0H862L653 549L227 0H-31Z" glyph-name="X" horiz-adv-x="1331" unicode="X" /><glyph d="M473 575 219 1343V1434H516L696 840H700L1130 1434H1374V1343L784 545L659 0H340Z" glyph-name="Y" horiz-adv-x="1212" unicode="Y" /><glyph d="M473 575 219 1343V1434H516L696 840H700L1130 1434H1374V1343L784 545L659 0H340ZM735 1542 831 1741H1122V1655L897 1479H735Z" glyph-name="Yacute" horiz-adv-x="1212" unicode="&#221;" /><glyph d="M473 575 219 1343V1434H516L696 840H700L1130 1434H1374V1343L784 545L659 0H340ZM629 1478Q597 1478 570.5 1489.5Q544 1501 525 1521Q506 1541 496 1567.5Q486 1594 486 1624Q486 1657 499 1685.5Q512 1714 534 1734.5Q556 1755 585.5 1767Q615 1779 647 1779Q679 1779 706 1767.5Q733 1756 752.5 1736Q772 1716 782.5 1689.5Q793 1663 793 1634Q793 1600 779.5 1571.5Q766 1543 743.5 1522Q721 1501 691 1489.5Q661 1478 629 1478ZM1022 1478Q990 1478 963.5 1489.5Q937 1501 918 1521Q899 1541 889 1567.5Q879 1594 879 1624Q879 1657 892 1685.5Q905 1714 927.5 1734.5Q950 1755 979.5 1767Q1009 1779 1041 1779Q1073 1779 1100 1767.5Q1127 1756 1146 1736Q1165 1716 1175.5 1689.5Q1186 1663 1186 1634Q1186 1600 1172.5 1571.5Q1159 1543 1136.5 1522Q1114 1501 1084 1489.5Q1054 1478 1022 1478Z" glyph-name="Ydieresis" horiz-adv-x="1212" unicode="&#376;" /><glyph d="M-8 242 862 1198V1206H266L319 1434H1286L1229 1186L356 229V221H1006L956 0H-63Z" glyph-name="Z" horiz-adv-x="1143" unicode="Z" /><glyph d="M-8 242 862 1198V1206H266L319 1434H1286L1229 1186L356 229V221H1006L956 0H-63ZM1127 1673 911 1479H707L557 1673V1749H725L832 1663L975 1749H1127Z" glyph-name="Zcaron" horiz-adv-x="1143" unicode="&#381;" /><glyph d="M719 0Q669 0 628.5 24.5Q588 49 571 102Q522 51 453.5 19.5Q385 -12 297 -12Q233 -12 179.5 6.5Q126 25 87.5 61.5Q49 98 27.5 151.5Q6 205 6 276Q6 364 39 433Q72 502 133 549.5Q194 597 280.5 622Q367 647 473 647Q542 647 584.5 640.5Q627 634 659 623L668 662Q692 768 659 822.5Q626 877 526 877Q445 877 382 860Q319 843 262 811H176L225 1024Q260 1039 297.5 1051.5Q335 1064 378 1073Q421 1082 470 1087Q519 1092 578 1092Q691 1092 775 1065Q859 1038 909.5 982Q960 926 974 838.5Q988 751 961 631L815 0ZM406 174Q460 174 499 196.5Q538 219 575 254L621 459Q596 465 565 470Q534 475 492 475Q390 475 338.5 425Q287 375 287 297Q287 238 317 206Q347 174 406 174Z" glyph-name="a" horiz-adv-x="1042" unicode="a" /><glyph d="M719 0Q669 0 628.5 24.5Q588 49 571 102Q522 51 453.5 19.5Q385 -12 297 -12Q233 -12 179.5 6.5Q126 25 87.5 61.5Q49 98 27.5 151.5Q6 205 6 276Q6 364 39 433Q72 502 133 549.5Q194 597 280.5 622Q367 647 473 647Q542 647 584.5 640.5Q627 634 659 623L668 662Q692 768 659 822.5Q626 877 526 877Q445 877 382 860Q319 843 262 811H176L225 1024Q260 1039 297.5 1051.5Q335 1064 378 1073Q421 1082 470 1087Q519 1092 578 1092Q691 1092 775 1065Q859 1038 909.5 982Q960 926 974 838.5Q988 751 961 631L815 0ZM406 174Q460 174 499 196.5Q538 219 575 254L621 459Q596 465 565 470Q534 475 492 475Q390 475 338.5 425Q287 375 287 297Q287 238 317 206Q347 174 406 174ZM530 1214 637 1434H927V1348L692 1151H530Z" glyph-name="aacute" horiz-adv-x="1042" unicode="&#225;" /><glyph d="M719 0Q669 0 628.5 24.5Q588 49 571 102Q522 51 453.5 19.5Q385 -12 297 -12Q233 -12 179.5 6.5Q126 25 87.5 61.5Q49 98 27.5 151.5Q6 205 6 276Q6 364 39 433Q72 502 133 549.5Q194 597 280.5 622Q367 647 473 647Q542 647 584.5 640.5Q627 634 659 623L668 662Q692 768 659 822.5Q626 877 526 877Q445 877 382 860Q319 843 262 811H176L225 1024Q260 1039 297.5 1051.5Q335 1064 378 1073Q421 1082 470 1087Q519 1092 578 1092Q691 1092 775 1065Q859 1038 909.5 982Q960 926 974 838.5Q988 751 961 631L815 0ZM406 174Q460 174 499 196.5Q538 219 575 254L621 459Q596 465 565 470Q534 475 492 475Q390 475 338.5 425Q287 375 287 297Q287 238 317 206Q347 174 406 174ZM338 1227 555 1434H760L907 1227V1151H739L635 1247L489 1151H338Z" glyph-name="acircumflex" horiz-adv-x="1042" unicode="&#226;" /><glyph d="M471 1214 578 1434H868V1348L633 1151H471Z" glyph-name="acute" horiz-adv-x="819" unicode="&#180;" /><glyph d="M547 1542 643 1741H934V1655L709 1479H547Z" glyph-name="acute.cap" horiz-adv-x="819" /><glyph d="M719 0Q669 0 628.5 24.5Q588 49 571 102Q522 51 453.5 19.5Q385 -12 297 -12Q233 -12 179.5 6.5Q126 25 87.5 61.5Q49 98 27.5 151.5Q6 205 6 276Q6 364 39 433Q72 502 133 549.5Q194 597 280.5 622Q367 647 473 647Q542 647 584.5 640.5Q627 634 659 623L668 662Q692 768 659 822.5Q626 877 526 877Q445 877 382 860Q319 843 262 811H176L225 1024Q260 1039 297.5 1051.5Q335 1064 378 1073Q421 1082 470 1087Q519 1092 578 1092Q691 1092 775 1065Q859 1038 909.5 982Q960 926 974 838.5Q988 751 961 631L815 0ZM406 174Q460 174 499 196.5Q538 219 575 254L621 459Q596 465 565 470Q534 475 492 475Q390 475 338.5 425Q287 375 287 297Q287 238 317 206Q347 174 406 174ZM444 1159Q412 1159 385.5 1170.5Q359 1182 340 1202Q321 1222 311 1248.5Q301 1275 301 1305Q301 1338 314 1366.5Q327 1395 349 1415.5Q371 1436 400.5 1448Q430 1460 462 1460Q494 1460 521 1448.5Q548 1437 567.5 1417Q587 1397 597.5 1370.5Q608 1344 608 1315Q608 1281 594.5 1252.5Q581 1224 558.5 1203Q536 1182 506 1170.5Q476 1159 444 1159ZM837 1159Q805 1159 778.5 1170.5Q752 1182 733 1202Q714 1222 704 1248.5Q694 1275 694 1305Q694 1338 707 1366.5Q720 1395 742.5 1415.5Q765 1436 794.5 1448Q824 1460 856 1460Q888 1460 915 1448.5Q942 1437 961 1417Q980 1397 990.5 1370.5Q1001 1344 1001 1315Q1001 1281 987.5 1252.5Q974 1224 951.5 1203Q929 1182 899 1170.5Q869 1159 837 1159Z" glyph-name="adieresis" horiz-adv-x="1042" unicode="&#228;" /><glyph d="M324 -12Q250 -12 191 6.5Q132 25 91 61.5Q50 98 28 151.5Q6 205 6 276Q6 364 39 433.5Q72 503 133 551.5Q194 600 280.5 625.5Q367 651 473 651H666L668 662Q692 768 659 822.5Q626 877 526 877Q445 877 382 860Q319 843 262 811H176L225 1024Q260 1039 297.5 1051.5Q335 1064 378 1073Q421 1082 470 1087Q519 1092 578 1092Q690 1092 766 1062Q842 1032 883 969Q952 1026 1038 1059Q1124 1092 1223 1092Q1319 1092 1389 1064.5Q1459 1037 1504.5 986Q1550 935 1572 863.5Q1594 792 1593 705Q1593 651 1584.5 592Q1576 533 1559 471H924V430Q924 365 937 320.5Q950 276 975.5 248Q1001 220 1040 207.5Q1079 195 1130 195Q1206 195 1271 214Q1336 233 1395 270H1491L1446 70Q1417 55 1380.5 40Q1344 25 1300.5 13Q1257 1 1206.5 -6.5Q1156 -14 1098 -14Q960 -14 861 30Q762 74 705 158Q675 122 637.5 90.5Q600 59 553.5 36.5Q507 14 450 1Q393 -12 324 -12ZM633 426Q633 437 632 448Q631 459 633 471H492Q389 471 338 423Q287 375 287 297Q287 238 317 206Q347 174 406 174Q442 174 476 183.5Q510 193 541 210.5Q572 228 598 251Q624 274 645 301Q633 359 633 426ZM1200 901Q1106 901 1042.5 833Q979 765 948 651H1327Q1332 673 1333.5 693Q1335 713 1335 731Q1335 818 1299 859.5Q1263 901 1200 901Z" glyph-name="ae" horiz-adv-x="1638" unicode="&#230;" /><glyph d="M719 0Q669 0 628.5 24.5Q588 49 571 102Q522 51 453.5 19.5Q385 -12 297 -12Q233 -12 179.5 6.5Q126 25 87.5 61.5Q49 98 27.5 151.5Q6 205 6 276Q6 364 39 433Q72 502 133 549.5Q194 597 280.5 622Q367 647 473 647Q542 647 584.5 640.5Q627 634 659 623L668 662Q692 768 659 822.5Q626 877 526 877Q445 877 382 860Q319 843 262 811H176L225 1024Q260 1039 297.5 1051.5Q335 1064 378 1073Q421 1082 470 1087Q519 1092 578 1092Q691 1092 775 1065Q859 1038 909.5 982Q960 926 974 838.5Q988 751 961 631L815 0ZM406 174Q460 174 499 196.5Q538 219 575 254L621 459Q596 465 565 470Q534 475 492 475Q390 475 338.5 425Q287 375 287 297Q287 238 317 206Q347 174 406 174ZM360 1348V1434H643L721 1214V1151H540Z" glyph-name="agrave" horiz-adv-x="1042" unicode="&#224;" /><glyph d="M496 -18Q404 -18 317.5 4.5Q231 27 164.5 75.5Q98 124 58 200Q18 276 18 383Q18 461 46.5 530Q75 599 126 656.5Q177 714 247 758Q317 802 399 829Q384 870 375.5 910Q367 950 367 999Q367 1093 402 1175.5Q437 1258 503 1319Q569 1380 665 1415Q761 1450 883 1450Q985 1450 1061.5 1430.5Q1138 1411 1206 1366L1161 1137H1051Q1017 1174 974.5 1195.5Q932 1217 870 1217Q826 1217 789.5 1203Q753 1189 726.5 1163Q700 1137 685 1100Q670 1063 670 1016Q670 993 674 971.5Q678 950 687 927Q696 904 711.5 878Q727 852 750 821L975 512Q995 548 1016 589Q1037 630 1056 673Q1075 716 1089.5 760.5Q1104 805 1112 848H1362V782Q1343 714 1315.5 650Q1288 586 1256 526.5Q1224 467 1189 413Q1154 359 1120 313L1284 82L1290 0H981L901 111Q858 81 814.5 57Q771 33 722.5 16.5Q674 0 618.5 -9Q563 -18 496 -18ZM565 207Q639 207 690 229Q741 251 776 279L489 670Q421 631 380.5 569Q340 507 340 412Q340 363 356.5 325Q373 287 403 260.5Q433 234 474.5 220.5Q516 207 565 207Z" glyph-name="ampersand" horiz-adv-x="1393" unicode="&amp;" /><glyph d="M719 0Q669 0 628.5 24.5Q588 49 571 102Q522 51 453.5 19.5Q385 -12 297 -12Q233 -12 179.5 6.5Q126 25 87.5 61.5Q49 98 27.5 151.5Q6 205 6 276Q6 364 39 433Q72 502 133 549.5Q194 597 280.5 622Q367 647 473 647Q542 647 584.5 640.5Q627 634 659 623L668 662Q692 768 659 822.5Q626 877 526 877Q445 877 382 860Q319 843 262 811H176L225 1024Q260 1039 297.5 1051.5Q335 1064 378 1073Q421 1082 470 1087Q519 1092 578 1092Q691 1092 775 1065Q859 1038 909.5 982Q960 926 974 838.5Q988 751 961 631L815 0ZM406 174Q460 174 499 196.5Q538 219 575 254L621 459Q596 465 565 470Q534 475 492 475Q390 475 338.5 425Q287 375 287 297Q287 238 317 206Q347 174 406 174ZM653 1286Q688 1286 711.5 1310Q735 1334 735 1372Q735 1406 715 1425Q695 1444 663 1444Q628 1444 606.5 1420Q585 1396 585 1354Q585 1323 603 1304.5Q621 1286 653 1286ZM651 1159Q608 1159 570 1172Q532 1185 504 1210Q476 1235 460 1271Q444 1307 444 1352Q444 1402 462.5 1442.5Q481 1483 512 1511.5Q543 1540 583 1555.5Q623 1571 667 1571Q710 1571 748 1557.5Q786 1544 814 1518.5Q842 1493 858 1456.5Q874 1420 874 1374Q874 1324 855.5 1284Q837 1244 806.5 1216.5Q776 1189 735.5 1174Q695 1159 651 1159Z" glyph-name="aring" horiz-adv-x="1042" unicode="&#229;" /><glyph d="M139 995 518 1434H733L928 995V926H707L586 1190H580L352 926H139Z" glyph-name="asciicircum" horiz-adv-x="862" unicode="^" /><glyph d="M49 532Q62 580 84.5 620Q107 660 138.5 689Q170 718 210.5 734Q251 750 299 750Q340 750 376.5 741Q413 732 444.5 721.5Q476 711 501.5 702.5Q527 694 545 694Q576 694 594 709Q612 724 625 756H791V664Q765 565 701.5 505.5Q638 446 541 446Q505 446 468.5 454.5Q432 463 400 473.5Q368 484 340.5 493Q313 502 295 502Q264 502 245.5 487Q227 472 215 440H49Z" glyph-name="asciitilde" horiz-adv-x="807" unicode="~" /><glyph d="M514 836 494 993 395 836 324 766 176 926 250 993 397 1069 252 1087 168 1124 276 1329 360 1292 471 1186 457 1339 479 1434H711L684 1323L604 1171L752 1249L844 1268L870 1049L774 1030L623 1047L729 940L766 860L553 754Z" glyph-name="asterisk" horiz-adv-x="782" unicode="*" /><glyph d="M889 -274Q782 -274 678.5 -255.5Q575 -237 481.5 -198.5Q388 -160 309.5 -99.5Q231 -39 173.5 44.5Q116 128 83.5 235.5Q51 343 51 477Q51 619 89.5 740Q128 861 194.5 959.5Q261 1058 350.5 1134Q440 1210 542 1261.5Q644 1313 753 1339.5Q862 1366 969 1366Q1131 1366 1273.5 1322.5Q1416 1279 1522 1194Q1628 1109 1689.5 984Q1751 859 1751 696Q1751 552 1709.5 446.5Q1668 341 1599 272Q1530 203 1440 169Q1350 135 1253 135Q1191 135 1145 144Q1099 153 1066.5 170Q1034 187 1014 211Q994 235 983 264Q962 239 935 215.5Q908 192 875.5 174Q843 156 803.5 145.5Q764 135 717 135Q658 135 610.5 153.5Q563 172 529.5 208.5Q496 245 477.5 300Q459 355 459 428Q459 488 473 549.5Q487 611 513.5 667.5Q540 724 579.5 774Q619 824 670 860.5Q721 897 783 918.5Q845 940 918 940Q958 940 988.5 934Q1019 928 1044 917Q1069 906 1088.5 891Q1108 876 1126 858Q1154 892 1187.5 910Q1221 928 1274 928H1368L1255 430Q1250 406 1249 384.5Q1248 363 1254.5 347Q1261 331 1276 322Q1291 313 1317 313Q1365 313 1406 336Q1447 359 1476 406Q1505 453 1521.5 525.5Q1538 598 1538 696Q1538 812 1499 903Q1460 994 1386.5 1056.5Q1313 1119 1207.5 1151.5Q1102 1184 969 1184Q883 1184 799 1164.5Q715 1145 638 1105.5Q561 1066 495.5 1007Q430 948 382 869.5Q334 791 306.5 693Q279 595 279 477Q279 321 325 212.5Q371 104 452.5 36.5Q534 -31 646 -61.5Q758 -92 889 -92Q1042 -92 1170 -57.5Q1298 -23 1413 45H1485L1442 -145Q1337 -207 1201.5 -240.5Q1066 -274 889 -274ZM809 322Q852 322 896 342.5Q940 363 975 401L1053 735Q1036 741 1015 746.5Q994 752 954 752Q902 752 859.5 725.5Q817 699 786.5 654Q756 609 739.5 550.5Q723 492 723 428Q723 374 746 348Q769 322 809 322Z" glyph-name="at" horiz-adv-x="1776" unicode="@" /><glyph d="M719 0Q669 0 628.5 24.5Q588 49 571 102Q522 51 453.5 19.5Q385 -12 297 -12Q233 -12 179.5 6.5Q126 25 87.5 61.5Q49 98 27.5 151.5Q6 205 6 276Q6 364 39 433Q72 502 133 549.5Q194 597 280.5 622Q367 647 473 647Q542 647 584.5 640.5Q627 634 659 623L668 662Q692 768 659 822.5Q626 877 526 877Q445 877 382 860Q319 843 262 811H176L225 1024Q260 1039 297.5 1051.5Q335 1064 378 1073Q421 1082 470 1087Q519 1092 578 1092Q691 1092 775 1065Q859 1038 909.5 982Q960 926 974 838.5Q988 751 961 631L815 0ZM406 174Q460 174 499 196.5Q538 219 575 254L621 459Q596 465 565 470Q534 475 492 475Q390 475 338.5 425Q287 375 287 297Q287 238 317 206Q347 174 406 174ZM760 1157Q724 1157 693.5 1166Q663 1175 636.5 1185.5Q610 1196 588 1205Q566 1214 547 1214Q518 1214 501 1199Q484 1184 473 1155H320V1233Q352 1329 407.5 1377Q463 1425 545 1425Q581 1425 612 1416.5Q643 1408 669.5 1398.5Q696 1389 718.5 1380.5Q741 1372 760 1372Q788 1372 803.5 1386.5Q819 1401 832 1427H985V1350Q920 1157 760 1157Z" glyph-name="atilde" horiz-adv-x="1042" unicode="&#227;" /><glyph d="M319 1434H502Q531 1434 552 1428Q573 1422 583.5 1404Q594 1386 594 1353Q594 1320 582 1266L510 954Q570 1014 652 1053Q734 1092 831 1092Q892 1092 947.5 1070Q1003 1048 1045 1001Q1087 954 1112 881Q1137 808 1137 707Q1137 539 1095.5 405Q1054 271 979.5 178Q905 85 802 35.5Q699 -14 575 -14Q521 -14 475.5 -2.5Q430 9 393.5 27Q357 45 329.5 67.5Q302 90 283 113Q266 90 245 70Q224 50 198.5 34Q173 18 142.5 9Q112 0 76 0H-8ZM705 870Q645 870 589 845Q533 820 471 778L350 248Q361 236 375 224Q389 212 409 202.5Q429 193 455.5 186.5Q482 180 518 180Q599 180 659.5 220.5Q720 261 760 330Q800 399 820 491.5Q840 584 840 688Q840 779 802.5 824.5Q765 870 705 870Z" glyph-name="b" horiz-adv-x="1190" unicode="b" /><glyph d="M197 1456V1518H424L610 -39V-100H383Z" glyph-name="backslash" horiz-adv-x="721" unicode="\" /><glyph d="M186 1518H422L420 -100H184Z" glyph-name="bar" horiz-adv-x="512" unicode="|" /><glyph d="M395 -100Q228 -100 160.5 -26.5Q93 47 125 184L203 518Q215 569 196 600Q177 631 123 631H66L113 827H160Q222 827 254.5 856.5Q287 886 299 940L373 1255Q388 1318 410.5 1367Q433 1416 469.5 1449.5Q506 1483 559.5 1500.5Q613 1518 688 1518H920L872 1321H721Q692 1321 675.5 1304.5Q659 1288 651 1257L580 942Q570 900 552.5 865Q535 830 507.5 802Q480 774 439.5 754Q399 734 344 723V717Q392 703 422 680.5Q452 658 467 628Q482 598 482.5 560.5Q483 523 473 479L399 160Q391 129 401.5 112.5Q412 96 444 96H590L545 -100H395Z" glyph-name="braceleft" horiz-adv-x="752" unicode="{" /><glyph d="M-33 96H119Q148 96 164 112.5Q180 129 188 160L264 496Q274 537 291.5 572.5Q309 608 336.5 636Q364 664 404 684Q444 704 500 715V721Q452 735 422 757.5Q392 780 377 810Q362 840 361.5 877Q361 914 371 958L440 1257Q457 1321 395 1321H250L295 1518H444Q612 1518 679.5 1444Q747 1370 715 1233L641 920Q629 869 648 838Q667 807 721 807H778L731 610H684Q622 610 589.5 581Q557 552 545 498L467 162Q452 99 429.5 50Q407 1 370 -32Q333 -65 280 -82.5Q227 -100 152 -100H-80Z" glyph-name="braceright" horiz-adv-x="752" unicode="}" /><glyph d="M375 1518H860L813 1321H606L324 96H530L485 -100H279H0Z" glyph-name="bracketleft" horiz-adv-x="692" unicode="[" /><glyph d="M-35 96H172L455 1321H248L295 1518H780L406 -100H126H-80Z" glyph-name="bracketright" horiz-adv-x="692" unicode="]" /><glyph d="M580 1153Q518 1153 471 1170.5Q424 1188 391.5 1216.5Q359 1245 340.5 1282Q322 1319 317 1358V1434H508Q508 1395 525 1371.5Q542 1348 586 1348Q629 1348 652.5 1370.5Q676 1393 684 1434H870V1358Q859 1319 835 1282Q811 1245 774.5 1216.5Q738 1188 689 1170.5Q640 1153 580 1153Z" glyph-name="breve" horiz-adv-x="819" unicode="&#728;" /><glyph d="M659 1481Q597 1481 550 1497.5Q503 1514 470 1540.5Q437 1567 418.5 1600.5Q400 1634 395 1669V1745H586Q586 1733 590.5 1720.5Q595 1708 604.5 1698Q614 1688 629 1681.5Q644 1675 666 1675Q709 1675 731.5 1695.5Q754 1716 762 1745H948V1669Q937 1634 913 1600.5Q889 1567 853 1540.5Q817 1514 768.5 1497.5Q720 1481 659 1481Z" glyph-name="breve.cap" horiz-adv-x="819" /><glyph d="M184 631H420V-100H184ZM184 1518H420V805H184Z" glyph-name="brokenbar" horiz-adv-x="510" unicode="&#166;" /><glyph d="M313 297Q259 297 211.5 314Q164 331 128.5 363.5Q93 396 72 442Q51 488 51 547Q51 617 76 673Q101 729 143 768.5Q185 808 241 829Q297 850 360 850Q413 850 460.5 833Q508 816 543.5 783.5Q579 751 600 704.5Q621 658 621 600Q621 529 597 473Q573 417 531.5 378Q490 339 433.5 318Q377 297 313 297Z" glyph-name="bullet" horiz-adv-x="655" unicode="&#8226;" /><glyph d="M539 -14Q416 -14 325 17.5Q234 49 174 107Q114 165 84.5 246.5Q55 328 55 428Q55 575 105 697.5Q155 820 242 907.5Q329 995 447 1043.5Q565 1092 702 1092Q809 1092 885 1068.5Q961 1045 1018 1001L973 809H864Q841 837 799 855.5Q757 874 694 874Q616 874 552.5 840Q489 806 444 746Q399 686 374.5 605Q350 524 350 430Q350 312 403 255.5Q456 199 561 199Q632 199 680 216.5Q728 234 770 262H881L834 59Q783 27 710.5 6.5Q638 -14 539 -14Z" glyph-name="c" horiz-adv-x="991" unicode="c" /><glyph d="M317 1358V1434H485L590 1337L735 1434H887V1358L670 1151H465Z" glyph-name="caron" horiz-adv-x="819" unicode="&#711;" /><glyph d="M961 1673 745 1479H541L391 1673V1749H559L666 1663L809 1749H961Z" glyph-name="caron.cap" horiz-adv-x="819" /><glyph d="M508 -14 500 -49Q534 -51 559 -61.5Q584 -72 600.5 -90Q617 -108 625 -131.5Q633 -155 633 -182Q633 -233 613 -267Q593 -301 560 -321.5Q527 -342 485.5 -350Q444 -358 401 -358Q367 -358 342 -355.5Q317 -353 297 -347.5Q277 -342 261.5 -334.5Q246 -327 231 -317L258 -203H317Q325 -215 341.5 -223Q358 -231 389 -231Q415 -231 434 -222.5Q453 -214 453 -193Q453 -176 438.5 -166Q424 -156 387 -156H334L371 4Q291 23 231.5 61Q172 99 133 153.5Q94 208 74.5 277.5Q55 347 55 428Q55 575 105 697.5Q155 820 242 907.5Q329 995 447 1043.5Q565 1092 702 1092Q809 1092 885 1068.5Q961 1045 1018 1001L973 809H864Q841 837 799 855.5Q757 874 694 874Q616 874 552.5 840Q489 806 444 746Q399 686 374.5 605Q350 524 350 430Q350 312 403 255.5Q456 199 561 199Q632 199 680 216.5Q728 234 770 262H881L834 59Q783 27 710.5 6.5Q638 -14 539 -14Z" glyph-name="ccedilla" horiz-adv-x="991" unicode="&#231;" /><glyph d="M231 -358Q197 -358 172 -355.5Q147 -353 127 -347.5Q107 -342 91.5 -334.5Q76 -327 61 -317L88 -203H147Q155 -215 171.5 -223Q188 -231 219 -231Q245 -231 264 -222.5Q283 -214 283 -193Q283 -176 268.5 -166Q254 -156 217 -156H164L201 0H342L330 -49Q364 -51 389 -61.5Q414 -72 430.5 -90Q447 -108 455 -131.5Q463 -155 463 -182Q463 -233 443 -267Q423 -301 390 -321.5Q357 -342 315.5 -350Q274 -358 231 -358Z" glyph-name="cedilla" horiz-adv-x="819" unicode="&#184;" /><glyph d="M508 -2Q416 15 347 53.5Q278 92 232 148.5Q186 205 163.5 278Q141 351 141 436Q141 573 189 689.5Q237 806 320.5 892Q404 978 517.5 1030Q631 1082 762 1090L788 1206H971L942 1083Q1014 1074 1063.5 1053Q1113 1032 1155 1001L1110 809H1001Q984 828 957.5 843Q931 858 893 866L739 203Q796 209 835.5 224.5Q875 240 907 262H1018L971 59Q924 30 857 10.5Q790 -9 688 -14L643 -211H461ZM436 442Q436 354 467.5 298Q499 242 559 217L709 860Q642 842 591 802Q540 762 505.5 706.5Q471 651 453.5 583.5Q436 516 436 442Z" glyph-name="cent" horiz-adv-x="1229" unicode="&#162;" /><glyph d="M287 1227 504 1434H709L856 1227V1151H688L584 1247L438 1151H287Z" glyph-name="circumflex" horiz-adv-x="819" unicode="&#710;" /><glyph d="M350 1554 565 1749H770L920 1554V1479H752L645 1565L502 1479H350Z" glyph-name="circumflex.cap" horiz-adv-x="819" /><glyph d="M211 -12Q176 -12 146.5 0.5Q117 13 96 34.5Q75 56 63 85Q51 114 51 147Q51 183 65.5 214.5Q80 246 104.5 268.5Q129 291 161.5 304Q194 317 229 317Q265 317 295 304Q325 291 346.5 269.5Q368 248 379.5 219Q391 190 391 158Q391 121 376 89.5Q361 58 336 35.5Q311 13 278.5 0.5Q246 -12 211 -12ZM346 582Q311 582 281.5 594.5Q252 607 231 628.5Q210 650 198 679Q186 708 186 741Q186 777 200.5 808.5Q215 840 240 862.5Q265 885 297 898Q329 911 365 911Q401 911 430.5 898Q460 885 481.5 863.5Q503 842 514.5 813Q526 784 526 752Q526 715 511 683.5Q496 652 471 629.5Q446 607 413.5 594.5Q381 582 346 582Z" glyph-name="colon" horiz-adv-x="614" unicode=":" /><glyph d="M-6 -94Q28 -91 56 -83Q84 -75 104 -63Q124 -51 135.5 -36.5Q147 -22 147 -6Q147 13 135.5 20.5Q124 28 102 43Q78 60 64.5 85.5Q51 111 51 145Q51 184 65 215.5Q79 247 102.5 269.5Q126 292 157 304.5Q188 317 223 317Q257 317 288 305Q319 293 341.5 270.5Q364 248 377.5 217Q391 186 391 147Q391 60 360 -7.5Q329 -75 273 -122Q217 -169 138.5 -195Q60 -221 -35 -225Z" glyph-name="comma" horiz-adv-x="614" unicode="," /><glyph d="M866 315Q770 315 694.5 342.5Q619 370 566.5 422Q514 474 486.5 549Q459 624 459 719Q459 813 491 888.5Q523 964 579 1017Q635 1070 711.5 1098Q788 1126 877 1126Q970 1126 1027.5 1109Q1085 1092 1122 1073V901H1030Q1007 923 971 940.5Q935 958 877 958Q792 958 742 896.5Q692 835 692 717Q692 594 740 538.5Q788 483 872 483Q907 483 933.5 488.5Q960 494 980.5 502.5Q1001 511 1016 521.5Q1031 532 1042 543H1124V387Q1106 375 1081 362.5Q1056 350 1023.5 339.5Q991 329 951.5 322Q912 315 866 315ZM844 88Q971 88 1081.5 129.5Q1192 171 1274.5 251.5Q1357 332 1404.5 449Q1452 566 1452 717Q1452 867 1404.5 984.5Q1357 1102 1274.5 1182Q1192 1262 1081.5 1304Q971 1346 844 1346Q717 1346 606.5 1304Q496 1262 413.5 1182Q331 1102 283.5 984.5Q236 867 236 717Q236 566 283.5 449Q331 332 413.5 251.5Q496 171 606.5 129.5Q717 88 844 88ZM844 -16Q697 -16 564 32Q431 80 330 173Q229 266 169 403Q109 540 109 717Q109 894 169 1031Q229 1168 330 1261Q431 1354 564 1402Q697 1450 844 1450Q991 1450 1124 1402Q1257 1354 1358 1261Q1459 1168 1519 1031Q1579 894 1579 717Q1579 540 1519 403Q1459 266 1358 173Q1257 80 1124 32Q991 -16 844 -16Z" glyph-name="copyright" horiz-adv-x="1597" unicode="&#169;" /><glyph d="M872 0Q831 0 800.5 10Q770 20 749.5 37.5Q729 55 717 79Q705 103 700 131Q643 62 566 23Q489 -16 395 -16Q323 -16 260 5.5Q197 27 150 74Q103 121 76 196Q49 271 49 379Q49 529 92 658.5Q135 788 211.5 884Q288 980 392.5 1035Q497 1090 621 1090Q713 1090 773.5 1062Q834 1034 872 989L975 1434H1155Q1184 1434 1205 1428Q1226 1422 1236.5 1404Q1247 1386 1247 1353Q1247 1320 1235 1266L946 0ZM500 190Q548 190 603 213Q658 236 711 276L829 803Q818 813 803 824.5Q788 836 768.5 845Q749 854 724 860Q699 866 668 866Q592 866 532 829.5Q472 793 431 729Q390 665 368 578Q346 491 346 391Q346 289 381 239.5Q416 190 500 190Z" glyph-name="d" horiz-adv-x="1190" unicode="d" /><glyph d="M336 551 365 676 475 881 242 817H119L184 1106H289L512 1040L508 1262L547 1434H836L793 1241L690 1040L922 1106H1047L981 817H874L653 881L666 653L637 526L446 -100H233Z" glyph-name="dagger" horiz-adv-x="961" unicode="&#8224;" /><glyph d="M238 92 340 293 104 227H-18L49 516H154L377 453L348 616L375 725L475 881L242 817H119L184 1106H289L512 1040L508 1262L547 1434H836L793 1241L690 1040L922 1106H1047L981 817H874L653 881L680 717L655 608L555 453L786 516H911L844 227H737L518 293L522 72L481 -100H193Z" glyph-name="daggerdbl" horiz-adv-x="961" unicode="&#8225;" /><glyph d="M483 1006Q514 1006 542 1017Q570 1028 590.5 1048.5Q611 1069 623 1099Q635 1129 635 1167Q635 1228 598.5 1268Q562 1308 500 1308Q468 1308 441 1297Q414 1286 394.5 1265Q375 1244 363.5 1214.5Q352 1185 352 1147Q352 1085 386.5 1045.5Q421 1006 483 1006ZM475 868Q413 868 361 889Q309 910 271 946.5Q233 983 211.5 1034Q190 1085 190 1145Q190 1215 216.5 1271Q243 1327 287.5 1366Q332 1405 389 1425.5Q446 1446 508 1446Q569 1446 621.5 1425Q674 1404 712 1367.5Q750 1331 771.5 1280Q793 1229 793 1169Q793 1098 766.5 1042Q740 986 695.5 947.5Q651 909 593.5 888.5Q536 868 475 868Z" glyph-name="degree" horiz-adv-x="713" unicode="&#176;" /><glyph d="M385 1159Q353 1159 326.5 1170.5Q300 1182 281 1202Q262 1222 252 1248.5Q242 1275 242 1305Q242 1338 255 1366.5Q268 1395 290 1415.5Q312 1436 341.5 1448Q371 1460 403 1460Q435 1460 462 1448.5Q489 1437 508.5 1417Q528 1397 538.5 1370.5Q549 1344 549 1315Q549 1281 535.5 1252.5Q522 1224 499.5 1203Q477 1182 447 1170.5Q417 1159 385 1159ZM778 1159Q746 1159 719.5 1170.5Q693 1182 674 1202Q655 1222 645 1248.5Q635 1275 635 1305Q635 1338 648 1366.5Q661 1395 683.5 1415.5Q706 1436 735.5 1448Q765 1460 797 1460Q829 1460 856 1448.5Q883 1437 902 1417Q921 1397 931.5 1370.5Q942 1344 942 1315Q942 1281 928.5 1252.5Q915 1224 892.5 1203Q870 1182 840 1170.5Q810 1159 778 1159Z" glyph-name="dieresis" horiz-adv-x="819" unicode="&#168;" /><glyph d="M459 1478Q427 1478 400.5 1489.5Q374 1501 355 1521Q336 1541 326 1567.5Q316 1594 316 1624Q316 1657 329 1685.5Q342 1714 364 1734.5Q386 1755 415.5 1767Q445 1779 477 1779Q509 1779 536 1767.5Q563 1756 582.5 1736Q602 1716 612.5 1689.5Q623 1663 623 1634Q623 1600 609.5 1571.5Q596 1543 573.5 1522Q551 1501 521 1489.5Q491 1478 459 1478ZM852 1478Q820 1478 793.5 1489.5Q767 1501 748 1521Q729 1541 719 1567.5Q709 1594 709 1624Q709 1657 722 1685.5Q735 1714 757.5 1734.5Q780 1755 809.5 1767Q839 1779 871 1779Q903 1779 930 1767.5Q957 1756 976 1736Q995 1716 1005.5 1689.5Q1016 1663 1016 1634Q1016 1600 1002.5 1571.5Q989 1543 966.5 1522Q944 1501 914 1489.5Q884 1478 852 1478Z" glyph-name="dieresis.cap" horiz-adv-x="819" /><glyph d="M578 176Q542 176 512.5 188.5Q483 201 462 223Q441 245 429.5 274Q418 303 418 336Q418 372 432.5 403Q447 434 471.5 457Q496 480 528.5 493Q561 506 596 506Q632 506 662 493Q692 480 713 458Q734 436 746 407Q758 378 758 346Q758 309 743 278Q728 247 703 224.5Q678 202 645.5 189Q613 176 578 176ZM195 825H1171L1116 590H139ZM711 909Q675 909 645.5 921.5Q616 934 595 956Q574 978 562.5 1007Q551 1036 551 1069Q551 1105 565.5 1136Q580 1167 604.5 1190Q629 1213 661.5 1226Q694 1239 729 1239Q765 1239 795 1226Q825 1213 846 1191Q867 1169 879 1140Q891 1111 891 1079Q891 1042 876 1011Q861 980 836 957.5Q811 935 778.5 922Q746 909 711 909Z" glyph-name="divide" horiz-adv-x="1229" unicode="&#247;" /><glyph d="M381 -2Q325 7 278 22.5Q231 38 191.5 57.5Q152 77 120 99Q88 121 63 143L111 350H217Q254 301 305 263.5Q356 226 430 209L526 627Q458 654 403.5 689.5Q349 725 311 771Q273 817 252 875Q231 933 231 1006Q231 1109 269 1191.5Q307 1274 374.5 1331Q442 1388 535 1418.5Q628 1449 739 1450L766 1565H948L918 1432Q995 1416 1060 1386.5Q1125 1357 1178 1315L1133 1122H1028Q993 1159 954.5 1185Q916 1211 868 1225L776 825Q842 798 900 765Q958 732 1001.5 687Q1045 642 1070.5 582.5Q1096 523 1096 442Q1096 335 1057.5 250.5Q1019 166 948.5 107.5Q878 49 779 17.5Q680 -14 559 -16L516 -209H334ZM809 412Q809 465 780.5 497.5Q752 530 692 559L610 203Q651 210 687 225Q723 240 750 265Q777 290 793 326.5Q809 363 809 412ZM498 1044Q498 992 524 959Q550 926 610 895L690 1239Q653 1234 618.5 1220Q584 1206 557 1182Q530 1158 514 1123.5Q498 1089 498 1044Z" glyph-name="dollar" horiz-adv-x="1229" unicode="$" /><glyph d="M582 1161Q548 1161 520 1173Q492 1185 472 1205.5Q452 1226 441 1253.5Q430 1281 430 1313Q430 1347 444 1377Q458 1407 481.5 1428.5Q505 1450 535.5 1462.5Q566 1475 600 1475Q634 1475 662 1463Q690 1451 710.5 1430Q731 1409 742.5 1381.5Q754 1354 754 1323Q754 1288 740 1258Q726 1228 702 1206.5Q678 1185 647 1173Q616 1161 582 1161Z" glyph-name="dotaccent" horiz-adv-x="819" unicode="&#729;" /><glyph d="M658 1483Q624 1483 596 1495Q568 1507 548 1527.5Q528 1548 517 1575.5Q506 1603 506 1635Q506 1669 520 1699Q534 1729 557.5 1750.5Q581 1772 611.5 1784.5Q642 1797 676 1797Q710 1797 738 1785Q766 1773 786.5 1752Q807 1731 818.5 1703.5Q830 1676 830 1645Q830 1610 816 1580Q802 1550 778 1528.5Q754 1507 723 1495Q692 1483 658 1483Z" glyph-name="dotaccent.cap" horiz-adv-x="819" /><glyph d="M240 1075H403Q439 1075 463 1068.5Q487 1062 498.5 1041.5Q510 1021 509 982Q508 943 494 879L293 0H-6Z" glyph-name="dotlessi" horiz-adv-x="532" unicode="&#305;" /><glyph d="M514 -14Q291 -14 170 97.5Q49 209 49 426Q49 513 66.5 596Q84 679 118 753Q152 827 201.5 889.5Q251 952 314.5 997Q378 1042 455.5 1067Q533 1092 623 1092Q720 1092 793 1064.5Q866 1037 914.5 986Q963 935 987 863.5Q1011 792 1010 705Q1010 651 1001 592Q992 533 975 471H340V430Q340 365 353.5 320.5Q367 276 393 248Q419 220 457.5 207.5Q496 195 547 195Q622 195 687 214Q752 233 811 270H907L860 63Q801 31 716.5 8.5Q632 -14 514 -14ZM604 901Q559 901 521.5 883.5Q484 866 454 833Q424 800 401.5 754Q379 708 365 651H743Q748 673 750 693Q752 713 752 731Q752 818 712 859.5Q672 901 604 901Z" glyph-name="e" horiz-adv-x="1055" unicode="e" /><glyph d="M514 -14Q291 -14 170 97.5Q49 209 49 426Q49 513 66.5 596Q84 679 118 753Q152 827 201.5 889.5Q251 952 314.5 997Q378 1042 455.5 1067Q533 1092 623 1092Q720 1092 793 1064.5Q866 1037 914.5 986Q963 935 987 863.5Q1011 792 1010 705Q1010 651 1001 592Q992 533 975 471H340V430Q340 365 353.5 320.5Q367 276 393 248Q419 220 457.5 207.5Q496 195 547 195Q622 195 687 214Q752 233 811 270H907L860 63Q801 31 716.5 8.5Q632 -14 514 -14ZM604 901Q559 901 521.5 883.5Q484 866 454 833Q424 800 401.5 754Q379 708 365 651H743Q748 673 750 693Q752 713 752 731Q752 818 712 859.5Q672 901 604 901ZM543 1214 650 1434H940V1348L705 1151H543Z" glyph-name="eacute" horiz-adv-x="1055" unicode="&#233;" /><glyph d="M514 -14Q291 -14 170 97.5Q49 209 49 426Q49 513 66.5 596Q84 679 118 753Q152 827 201.5 889.5Q251 952 314.5 997Q378 1042 455.5 1067Q533 1092 623 1092Q720 1092 793 1064.5Q866 1037 914.5 986Q963 935 987 863.5Q1011 792 1010 705Q1010 651 1001 592Q992 533 975 471H340V430Q340 365 353.5 320.5Q367 276 393 248Q419 220 457.5 207.5Q496 195 547 195Q622 195 687 214Q752 233 811 270H907L860 63Q801 31 716.5 8.5Q632 -14 514 -14ZM604 901Q559 901 521.5 883.5Q484 866 454 833Q424 800 401.5 754Q379 708 365 651H743Q748 673 750 693Q752 713 752 731Q752 818 712 859.5Q672 901 604 901ZM357 1227 574 1434H779L926 1227V1151H758L654 1247L508 1151H357Z" glyph-name="ecircumflex" horiz-adv-x="1055" unicode="&#234;" /><glyph d="M514 -14Q291 -14 170 97.5Q49 209 49 426Q49 513 66.5 596Q84 679 118 753Q152 827 201.5 889.5Q251 952 314.5 997Q378 1042 455.5 1067Q533 1092 623 1092Q720 1092 793 1064.5Q866 1037 914.5 986Q963 935 987 863.5Q1011 792 1010 705Q1010 651 1001 592Q992 533 975 471H340V430Q340 365 353.5 320.5Q367 276 393 248Q419 220 457.5 207.5Q496 195 547 195Q622 195 687 214Q752 233 811 270H907L860 63Q801 31 716.5 8.5Q632 -14 514 -14ZM604 901Q559 901 521.5 883.5Q484 866 454 833Q424 800 401.5 754Q379 708 365 651H743Q748 673 750 693Q752 713 752 731Q752 818 712 859.5Q672 901 604 901ZM457 1159Q425 1159 398.5 1170.5Q372 1182 353 1202Q334 1222 324 1248.5Q314 1275 314 1305Q314 1338 327 1366.5Q340 1395 362 1415.5Q384 1436 413.5 1448Q443 1460 475 1460Q507 1460 534 1448.5Q561 1437 580.5 1417Q600 1397 610.5 1370.5Q621 1344 621 1315Q621 1281 607.5 1252.5Q594 1224 571.5 1203Q549 1182 519 1170.5Q489 1159 457 1159ZM850 1159Q818 1159 791.5 1170.5Q765 1182 746 1202Q727 1222 717 1248.5Q707 1275 707 1305Q707 1338 720 1366.5Q733 1395 755.5 1415.5Q778 1436 807.5 1448Q837 1460 869 1460Q901 1460 928 1448.5Q955 1437 974 1417Q993 1397 1003.5 1370.5Q1014 1344 1014 1315Q1014 1281 1000.5 1252.5Q987 1224 964.5 1203Q942 1182 912 1170.5Q882 1159 850 1159Z" glyph-name="edieresis" horiz-adv-x="1055" unicode="&#235;" /><glyph d="M514 -14Q291 -14 170 97.5Q49 209 49 426Q49 513 66.5 596Q84 679 118 753Q152 827 201.5 889.5Q251 952 314.5 997Q378 1042 455.5 1067Q533 1092 623 1092Q720 1092 793 1064.5Q866 1037 914.5 986Q963 935 987 863.5Q1011 792 1010 705Q1010 651 1001 592Q992 533 975 471H340V430Q340 365 353.5 320.5Q367 276 393 248Q419 220 457.5 207.5Q496 195 547 195Q622 195 687 214Q752 233 811 270H907L860 63Q801 31 716.5 8.5Q632 -14 514 -14ZM604 901Q559 901 521.5 883.5Q484 866 454 833Q424 800 401.5 754Q379 708 365 651H743Q748 673 750 693Q752 713 752 731Q752 818 712 859.5Q672 901 604 901ZM373 1348V1434H656L734 1214V1151H553Z" glyph-name="egrave" horiz-adv-x="1055" unicode="&#232;" /><glyph d="M555 -18Q504 -18 446.5 -11Q389 -4 332.5 13Q276 30 224.5 58Q173 86 133.5 129.5Q94 173 70.5 232.5Q47 292 47 371Q47 458 75.5 525Q104 592 153.5 641.5Q203 691 269 723Q335 755 410 772V780Q334 817 291 883Q248 949 248 1026Q248 1128 289 1207Q330 1286 399.5 1340Q469 1394 562 1422Q655 1450 760 1450Q863 1450 945.5 1424.5Q1028 1399 1086.5 1351.5Q1145 1304 1176.5 1236Q1208 1168 1208 1083Q1208 1012 1186 956.5Q1164 901 1125.5 860.5Q1087 820 1035.5 793.5Q984 767 924 752V743Q1018 703 1074 627.5Q1130 552 1130 440Q1130 330 1087.5 245Q1045 160 968.5 101.5Q892 43 786.5 12.5Q681 -18 555 -18ZM565 190Q629 190 677 210.5Q725 231 757 266.5Q789 302 805 349.5Q821 397 821 451Q821 495 809.5 533.5Q798 572 773.5 600.5Q749 629 709.5 645.5Q670 662 614 662Q552 662 504 640.5Q456 619 423 582.5Q390 546 373 496Q356 446 356 389Q356 341 372.5 303.5Q389 266 417.5 241Q446 216 484 203Q522 190 565 190ZM711 862Q754 862 790 875.5Q826 889 852.5 915Q879 941 894 979.5Q909 1018 909 1069Q909 1144 869 1189.5Q829 1235 748 1235Q704 1235 667.5 1221Q631 1207 604.5 1180Q578 1153 563.5 1113Q549 1073 549 1022Q549 981 562 951Q575 921 597 901Q619 881 648.5 871.5Q678 862 711 862Z" glyph-name="eight" horiz-adv-x="1229" unicode="8" /><glyph d="M123 -12Q88 -12 57 0.5Q26 13 3.5 35Q-19 57 -32 87Q-45 117 -45 152Q-45 186 -32 216.5Q-19 247 3.5 269Q26 291 57 304Q88 317 123 317Q157 317 188 304Q219 291 241.5 269Q264 247 277.5 216.5Q291 186 291 152Q291 117 277.5 87Q264 57 241.5 35Q219 13 188 0.5Q157 -12 123 -12ZM590 -12Q555 -12 524 0.5Q493 13 470.5 35Q448 57 435 87Q422 117 422 152Q422 186 435 216.5Q448 247 470.5 269Q493 291 524 304Q555 317 590 317Q624 317 655 304Q686 291 708.5 269Q731 247 744.5 216.5Q758 186 758 152Q758 117 744.5 87Q731 57 708.5 35Q686 13 655 0.5Q624 -12 590 -12ZM1057 -12Q1022 -12 991 0.5Q960 13 937.5 35Q915 57 902 87Q889 117 889 152Q889 186 902 216.5Q915 247 937.5 269Q960 291 991 304Q1022 317 1057 317Q1091 317 1122 304Q1153 291 1175.5 269Q1198 247 1211.5 216.5Q1225 186 1225 152Q1225 117 1211.5 87Q1198 57 1175.5 35Q1153 13 1122 0.5Q1091 -12 1057 -12Z" glyph-name="ellipsis" horiz-adv-x="1346" unicode="&#8230;" /><glyph d="M135 694H1509L1456 463H82Z" glyph-name="emdash" horiz-adv-x="1571" unicode="&#8212;" /><glyph d="M135 694H874L821 463H82Z" glyph-name="endash" horiz-adv-x="936" unicode="&#8211;" /><glyph d="M162 547H1077L1022 311H106ZM260 977H1176L1122 741H207Z" glyph-name="equal" horiz-adv-x="1229" unicode="=" /><glyph d="M408 1133 500 1210Q477 1220 452.5 1228.5Q428 1237 403 1243L449 1434H549Q589 1423 626 1409Q663 1395 698 1378L760 1432H936V1382L836 1296Q969 1194 1040.5 1043Q1112 892 1112 696Q1112 519 1068 386.5Q1024 254 946 165.5Q868 77 760.5 32.5Q653 -12 526 -12Q412 -12 324.5 20.5Q237 53 177 112Q117 171 86 254Q55 337 55 438Q55 573 98 683.5Q141 794 211 872.5Q281 951 369 993.5Q457 1036 547 1036Q630 1036 683.5 1013Q737 990 772 946Q752 999 717.5 1044Q683 1089 637 1126L586 1083H408ZM537 195Q607 195 660 232.5Q713 270 747.5 329.5Q782 389 799.5 464Q817 539 817 614Q817 724 764.5 779Q712 834 623 834Q554 834 502 800Q450 766 416 709Q382 652 365 577.5Q348 503 348 422Q348 316 394.5 255.5Q441 195 537 195Z" glyph-name="eth" horiz-adv-x="1167" unicode="&#240;" /><glyph d="M279 1257 319 1434H639L598 1257L330 422H141ZM172 -12Q137 -12 107.5 0.5Q78 13 57 34.5Q36 56 24 85Q12 114 12 147Q12 183 26.5 214.5Q41 246 65.5 268.5Q90 291 122.5 304Q155 317 190 317Q226 317 256 304Q286 291 307.5 269.5Q329 248 340.5 219Q352 190 352 158Q352 121 337 89.5Q322 58 297 35.5Q272 13 239.5 0.5Q207 -12 172 -12Z" glyph-name="exclam" horiz-adv-x="541" unicode="!" /><glyph d="M313 29 272 -147H-47L-6 29L262 864H451ZM420 1298Q455 1298 484.5 1285.5Q514 1273 535 1251.5Q556 1230 568 1201Q580 1172 580 1139Q580 1103 565.5 1071.5Q551 1040 526 1017.5Q501 995 469 982Q437 969 401 969Q365 969 335.5 981.5Q306 994 284.5 1016Q263 1038 251.5 1067Q240 1096 240 1128Q240 1165 255 1196.5Q270 1228 295 1250.5Q320 1273 352.5 1285.5Q385 1298 420 1298Z" glyph-name="exclamdown" horiz-adv-x="541" unicode="&#161;" /><glyph d="M236 874H109L152 1075H279L297 1157Q332 1311 426.5 1382.5Q521 1454 672 1454Q737 1454 782.5 1446Q828 1438 856 1425L817 1247H754Q720 1247 693.5 1243Q667 1239 647 1228.5Q627 1218 614 1198Q601 1178 594 1147L578 1075H762L719 874H532L336 0H45Z" glyph-name="f" horiz-adv-x="686" unicode="f" /><glyph d="M236 874H109L152 1075H279L297 1157Q332 1311 426.5 1382.5Q521 1454 672 1454Q735 1454 772.5 1447.5Q810 1441 838 1430L799 1247H754Q720 1247 693.5 1243Q667 1239 647 1228.5Q627 1218 614 1198Q601 1178 594 1147L578 1075H762L719 874H532L336 0H45ZM897 1075H1061Q1096 1075 1120 1068.5Q1144 1062 1156 1041.5Q1168 1021 1167 982Q1166 943 1151 879L950 0H651ZM1090 1161Q1056 1161 1028 1173Q1000 1185 980 1205.5Q960 1226 949 1253.5Q938 1281 938 1313Q938 1347 952 1377Q966 1407 989.5 1428.5Q1013 1450 1043.5 1462.5Q1074 1475 1108 1475Q1142 1475 1170 1463Q1198 1451 1218.5 1430Q1239 1409 1250.5 1381.5Q1262 1354 1262 1323Q1262 1288 1248 1258Q1234 1228 1210 1206.5Q1186 1185 1155 1173Q1124 1161 1090 1161Z" glyph-name="fi" horiz-adv-x="1190" unicode="&#64257;" /><glyph d="M485 -16Q404 -16 337 -6Q270 4 216 22Q162 40 118.5 65Q75 90 41 121L90 330H211Q256 270 321 240.5Q386 211 479 211Q540 211 596.5 231Q653 251 696.5 289.5Q740 328 765.5 383Q791 438 791 508Q791 553 776.5 587.5Q762 622 737 645.5Q712 669 677.5 680.5Q643 692 604 692Q562 692 527.5 683.5Q493 675 464.5 661.5Q436 648 414 631Q392 614 375 596H193L385 1434H1231L1174 1184H557L479 850H485Q523 878 580.5 899Q638 920 723 920Q807 920 878.5 894Q950 868 1002 818Q1054 768 1083 694.5Q1112 621 1112 526Q1112 397 1062 296Q1012 195 926 126Q840 57 726 20.5Q612 -16 485 -16Z" glyph-name="five" horiz-adv-x="1229" unicode="5" /><glyph d="M236 874H109L152 1075H279L297 1157Q332 1311 426.5 1382.5Q521 1454 672 1454Q735 1454 772.5 1447.5Q810 1441 838 1430L799 1247H754Q720 1247 693.5 1243Q667 1239 647 1228.5Q627 1218 614 1198Q601 1178 594 1147L578 1075H762L719 874H532L336 0H45ZM979 1434H1159Q1188 1434 1209 1428Q1230 1422 1240.5 1404Q1251 1386 1251 1353Q1251 1320 1239 1266L950 0H651Z" glyph-name="fl" horiz-adv-x="1196" unicode="&#64258;" /><glyph d="M348 909H510L569 1157Q588 1239 624.5 1295.5Q661 1352 713 1387.5Q765 1423 833 1438.5Q901 1454 985 1454Q1012 1454 1039 1451.5Q1066 1449 1090.5 1444.5Q1115 1440 1135 1434Q1155 1428 1169 1421L1130 1247H1051Q1011 1247 981.5 1243Q952 1239 931.5 1228.5Q911 1218 897.5 1198Q884 1178 877 1147L819 909H1061L1014 709H772L557 -205H248L463 709H301Z" glyph-name="florin" horiz-adv-x="1229" unicode="&#402;" /><glyph d="M651 303H41L102 569L922 1434H1225L1016 526H1167L1116 303H965L895 0H582ZM702 526 821 1042H813L338 535V526Z" glyph-name="four" horiz-adv-x="1229" unicode="4" /><glyph d="M803 1493H1026L-262 -70H-485Z" glyph-name="fraction" horiz-adv-x="455" unicode="&#8260;" /><glyph d="M375 -352Q297 -352 235.5 -343.5Q174 -335 126 -321Q78 -307 42.5 -289.5Q7 -272 -20 -254L29 -47H119Q157 -89 220.5 -112Q284 -135 371 -135Q425 -135 471.5 -125Q518 -115 555.5 -91Q593 -67 619.5 -28Q646 11 659 70L686 186Q626 123 545 84Q464 45 371 45Q306 45 247.5 66Q189 87 145 131Q101 175 75 242.5Q49 310 49 403Q49 548 91.5 674Q134 800 210 893Q286 986 391.5 1039Q497 1092 623 1092Q672 1092 715 1081Q758 1070 793.5 1052.5Q829 1035 857 1013.5Q885 992 905 971Q921 992 941.5 1010.5Q962 1029 987 1043.5Q1012 1058 1041.5 1066.5Q1071 1075 1106 1075H1190L956 63Q929 -55 877.5 -134.5Q826 -214 752.5 -262.5Q679 -311 584 -331.5Q489 -352 375 -352ZM479 254Q539 254 601 280.5Q663 307 725 356L831 825Q820 837 805.5 849Q791 861 771 871.5Q751 882 724.5 888.5Q698 895 664 895Q582 895 522 853.5Q462 812 423 744.5Q384 677 365 591Q346 505 346 416Q346 332 379.5 293Q413 254 479 254Z" glyph-name="g" horiz-adv-x="1178" unicode="g" /><glyph d="M745 -12Q642 -12 569.5 11.5Q497 35 446 70L492 270H582Q594 253 613 241Q632 229 654.5 221Q677 213 702 209Q727 205 752 205Q787 205 812 212.5Q837 220 852.5 231.5Q868 243 875.5 257Q883 271 883 285Q883 306 874.5 321.5Q866 337 850 350.5Q834 364 809.5 378Q785 392 754 410Q706 437 670.5 463Q635 489 612 518.5Q589 548 578 581Q567 614 567 655Q567 701 582.5 741Q598 781 624.5 817Q651 853 686.5 886.5Q722 920 762 954Q801 987 830 1012Q859 1037 877.5 1058.5Q896 1080 905.5 1100Q915 1120 915 1143Q915 1184 878 1214.5Q841 1245 768 1245Q708 1245 666.5 1228Q625 1211 597.5 1182.5Q570 1154 554.5 1118Q539 1082 530 1044L291 0H-8L233 1055Q251 1138 291.5 1210.5Q332 1283 399.5 1337Q467 1391 563 1422.5Q659 1454 788 1454Q876 1454 952.5 1434Q1029 1414 1084.5 1375.5Q1140 1337 1172 1282.5Q1204 1228 1204 1159Q1204 1111 1192.5 1073.5Q1181 1036 1157 1003Q1133 970 1097 939.5Q1061 909 1012 877Q978 854 946 832.5Q914 811 889 790Q864 769 849 750Q834 731 834 713Q834 699 840 687.5Q846 676 859.5 664Q873 652 895.5 638Q918 624 952 604Q1005 572 1044 540.5Q1083 509 1108 474Q1133 439 1145 399.5Q1157 360 1157 313Q1157 238 1129 178Q1101 118 1048 75.5Q995 33 918.5 10.5Q842 -12 745 -12Z" glyph-name="germandbls" horiz-adv-x="1231" unicode="&#223;" /><glyph d="M301 1348V1434H584L662 1214V1151H481Z" glyph-name="grave" horiz-adv-x="819" unicode="`" /><glyph d="M557 1479 385 1655V1741H668L737 1542V1479Z" glyph-name="grave.cap" horiz-adv-x="819" /><glyph d="M180 414 760 680V686L307 956L356 1169H426L1081 768L1036 569L197 180H127Z" glyph-name="greater" horiz-adv-x="1229" unicode="&gt;" /><glyph d="M61 489 88 606 414 983H655V918L324 520V514L463 147V82H225ZM494 489 520 606 846 983H1087V918L756 520V514L895 147V82H657Z" glyph-name="guillemotleft" horiz-adv-x="1055" unicode="&#171;" /><glyph d="M-27 147 305 545V551L166 918V983H403L567 575L541 459L215 82H-27ZM406 147 737 545V551L598 918V983H836L999 575L973 459L647 82H406Z" glyph-name="guillemotright" horiz-adv-x="1055" unicode="&#187;" /><glyph d="M61 489 88 606 414 983H655V918L324 520V514L463 147V82H225Z" glyph-name="guilsinglleft" horiz-adv-x="623" unicode="&#8249;" /><glyph d="M-27 147 305 545V551L166 918V983H403L567 575L541 459L215 82H-27Z" glyph-name="guilsinglright" horiz-adv-x="623" unicode="&#8250;" /><glyph d="M319 1434H500Q529 1434 550 1428Q571 1422 581.5 1404Q592 1386 592 1353Q592 1320 580 1266L508 948Q548 979 590 1005Q632 1031 678.5 1050.5Q725 1070 777.5 1081Q830 1092 891 1092Q954 1092 1003.5 1067Q1053 1042 1083.5 995Q1114 948 1122.5 880.5Q1131 813 1112 729L944 0H745Q719 0 702 6Q685 12 676.5 27.5Q668 43 668.5 68.5Q669 94 678 133L811 729Q825 794 806 824Q787 854 737 854Q680 854 613 830.5Q546 807 463 756L291 0H-8Z" glyph-name="h" horiz-adv-x="1171" unicode="h" /><glyph d="M313 1208 408 1434H643V1348L461 1151H313ZM647 1208 741 1434H977V1348L795 1151H647Z" glyph-name="hungarumlaut" horiz-adv-x="819" unicode="&#733;" /><glyph d="M385 1536 467 1741H702V1655L532 1479H385ZM719 1536 801 1741H1036V1655L866 1479H719Z" glyph-name="hungarumlaut.cap" horiz-adv-x="819" /><glyph d="M100 731H573L516 487H43Z" glyph-name="hyphen" horiz-adv-x="580" unicode="-" /><glyph d="M240 1075H403Q439 1075 463 1068.5Q487 1062 498.5 1041.5Q510 1021 509 982Q508 943 494 879L293 0H-6ZM426 1161Q392 1161 364 1173Q336 1185 316 1205.5Q296 1226 285 1253.5Q274 1281 274 1313Q274 1347 288 1377Q302 1407 325.5 1428.5Q349 1450 379.5 1462.5Q410 1475 444 1475Q478 1475 506.5 1463Q535 1451 555 1430Q575 1409 586.5 1381.5Q598 1354 598 1323Q598 1288 584 1258Q570 1228 546 1206.5Q522 1185 491 1173Q460 1161 426 1161Z" glyph-name="i" horiz-adv-x="532" unicode="i" /><glyph d="M240 1075H403Q439 1075 463 1068.5Q487 1062 498.5 1041.5Q510 1021 509 982Q508 943 494 879L293 0H-6ZM296 1214 403 1434H693V1348L458 1151H296Z" glyph-name="iacute" horiz-adv-x="532" unicode="&#237;" /><glyph d="M240 1075H403Q439 1075 463 1068.5Q487 1062 498.5 1041.5Q510 1021 509 982Q508 943 494 879L293 0H-6ZM104 1227 321 1434H526L673 1227V1151H505L401 1247L255 1151H104Z" glyph-name="icircumflex" horiz-adv-x="532" unicode="&#238;" /><glyph d="M240 1075H403Q439 1075 463 1068.5Q487 1062 498.5 1041.5Q510 1021 509 982Q508 943 494 879L293 0H-6ZM210 1159Q178 1159 151.5 1170.5Q125 1182 106 1202Q87 1222 77 1248.5Q67 1275 67 1305Q67 1338 80 1366.5Q93 1395 115 1415.5Q137 1436 166.5 1448Q196 1460 228 1460Q260 1460 287 1448.5Q314 1437 333.5 1417Q353 1397 363.5 1370.5Q374 1344 374 1315Q374 1281 360.5 1252.5Q347 1224 324.5 1203Q302 1182 272 1170.5Q242 1159 210 1159ZM603 1159Q571 1159 544.5 1170.5Q518 1182 499 1202Q480 1222 470 1248.5Q460 1275 460 1305Q460 1338 473 1366.5Q486 1395 508.5 1415.5Q531 1436 560.5 1448Q590 1460 622 1460Q654 1460 681 1448.5Q708 1437 727 1417Q746 1397 756.5 1370.5Q767 1344 767 1315Q767 1281 753.5 1252.5Q740 1224 717.5 1203Q695 1182 665 1170.5Q635 1159 603 1159Z" glyph-name="idieresis" horiz-adv-x="532" unicode="&#239;" /><glyph d="M240 1075H403Q439 1075 463 1068.5Q487 1062 498.5 1041.5Q510 1021 509 982Q508 943 494 879L293 0H-6ZM126 1348V1434H409L487 1214V1151H306Z" glyph-name="igrave" horiz-adv-x="532" unicode="&#236;" /><glyph d="M-63 -344Q-98 -344 -124 -342Q-150 -340 -170.5 -336Q-191 -332 -208 -326.5Q-225 -321 -242 -315L-203 -150H-166Q-129 -150 -103 -145Q-77 -140 -60 -126.5Q-43 -113 -32 -89Q-21 -65 -12 -27L240 1075H403Q439 1075 463 1068.5Q487 1062 498.5 1041.5Q510 1021 509 982Q508 943 494 879L283 -45Q263 -129 232 -186.5Q201 -244 158 -279Q115 -314 59.5 -329Q4 -344 -63 -344ZM426 1161Q392 1161 364 1173Q336 1185 316 1205.5Q296 1226 285 1253.5Q274 1281 274 1313Q274 1347 288 1377Q302 1407 325.5 1428.5Q349 1450 379.5 1462.5Q410 1475 444 1475Q478 1475 506.5 1463Q535 1451 555 1430Q575 1409 586.5 1381.5Q598 1354 598 1323Q598 1288 584 1258Q570 1228 546 1206.5Q522 1185 491 1173Q460 1161 426 1161Z" glyph-name="j" horiz-adv-x="528" unicode="j" /><glyph d="M319 1434H500Q529 1434 550 1428Q571 1422 581.5 1404Q592 1386 592 1353Q592 1320 580 1266L442 668L856 1075H1116V997L709 623L956 82V0H680L481 434L365 324L291 0H-8Z" glyph-name="k" horiz-adv-x="1073" unicode="k" /><glyph d="M322 1434H502Q531 1434 552 1428Q573 1422 583.5 1404Q594 1386 594 1353Q594 1320 582 1266L293 0H-6Z" glyph-name="l" horiz-adv-x="539" unicode="l" /><glyph d="M213 582 258 780 1098 1169H1167L1112 936L532 670V664L987 393L938 180H868Z" glyph-name="less" horiz-adv-x="1229" unicode="&lt;" /><glyph d="M45 760 182 825 322 1434H502Q531 1434 552 1428Q573 1422 583.5 1404Q594 1386 594 1353Q594 1320 582 1266L518 985L664 1055L612 836L467 766L293 0H-6L131 606L-4 541Z" glyph-name="lslash" horiz-adv-x="539" unicode="&#322;" /><glyph d="M238 1075H332Q417 1075 453.5 1034.5Q490 994 492 928Q530 961 571 990.5Q612 1020 656.5 1042.5Q701 1065 750 1078.5Q799 1092 854 1092Q939 1092 997 1049Q1055 1006 1075 926Q1165 1000 1260.5 1046Q1356 1092 1462 1092Q1526 1092 1575.5 1067Q1625 1042 1654 995.5Q1683 949 1690 881.5Q1697 814 1677 729L1507 0H1309Q1283 0 1265.5 6Q1248 12 1239.5 27.5Q1231 43 1231.5 68.5Q1232 94 1241 133L1374 729Q1388 794 1371.5 824Q1355 854 1309 854Q1265 854 1209.5 832Q1154 810 1075 762L1069 729L899 0H602L766 729Q780 794 763.5 824Q747 854 700 854Q657 854 600.5 831.5Q544 809 467 760L293 0H-8Z" glyph-name="m" horiz-adv-x="1737" unicode="m" /><glyph d="M346 1397H879L831 1196H299Z" glyph-name="macron" horiz-adv-x="819" unicode="&#175;" /><glyph d="M418 1704H951L903 1503H371Z" glyph-name="macron.cap" horiz-adv-x="819" /><glyph d="M195 825H1171L1116 590H139Z" glyph-name="minus" horiz-adv-x="1229" unicode="&#8722;" /><glyph d="M147 397 502 700 266 1004 449 1151 678 852 1028 1151 1157 991 805 688 1038 385 860 238 629 537 281 238Z" glyph-name="multiply" horiz-adv-x="1229" unicode="&#215;" /><glyph d="M238 1075H336Q378 1075 407 1065Q436 1055 454.5 1037Q473 1019 481.5 993Q490 967 492 936Q533 969 576.5 997.5Q620 1026 669 1047Q718 1068 772.5 1080Q827 1092 891 1092Q954 1092 1003.5 1067Q1053 1042 1083.5 995Q1114 948 1122.5 880.5Q1131 813 1112 729L944 0H745Q719 0 702 6Q685 12 676.5 27.5Q668 43 668.5 68.5Q669 94 678 133L811 729Q825 794 806 824Q787 854 737 854Q680 854 613 830.5Q546 807 463 756L291 0H-8Z" glyph-name="n" horiz-adv-x="1171" unicode="n" /><glyph d="M401 -18Q336 -18 283 -12Q230 -6 185.5 6Q141 18 103 35Q65 52 31 74L80 281H197Q234 245 285.5 226Q337 207 410 207Q519 207 608 246Q697 285 754 354Q800 410 832 480.5Q864 551 883 633Q817 580 731.5 551Q646 522 537 522Q448 522 375.5 546.5Q303 571 251.5 618.5Q200 666 171.5 734.5Q143 803 143 891Q143 1010 187.5 1111.5Q232 1213 310 1287.5Q388 1362 495.5 1404Q603 1446 729 1446Q840 1446 932.5 1413Q1025 1380 1091.5 1316.5Q1158 1253 1195.5 1160.5Q1233 1068 1233 950Q1233 740 1179.5 565Q1126 390 1020 254Q917 124 762 53Q607 -18 401 -18ZM651 737Q685 737 721 742.5Q757 748 791.5 757Q826 766 856.5 778.5Q887 791 911 805Q916 847 918 889.5Q920 932 920 977Q920 1030 909.5 1077.5Q899 1125 875.5 1161Q852 1197 813.5 1218Q775 1239 719 1239Q658 1239 607 1216.5Q556 1194 519 1153Q482 1112 461 1053.5Q440 995 440 922Q440 737 651 737Z" glyph-name="nine" horiz-adv-x="1229" unicode="9" /><glyph d="M238 1075H336Q378 1075 407 1065Q436 1055 454.5 1037Q473 1019 481.5 993Q490 967 492 936Q533 969 576.5 997.5Q620 1026 669 1047Q718 1068 772.5 1080Q827 1092 891 1092Q954 1092 1003.5 1067Q1053 1042 1083.5 995Q1114 948 1122.5 880.5Q1131 813 1112 729L944 0H745Q719 0 702 6Q685 12 676.5 27.5Q668 43 668.5 68.5Q669 94 678 133L811 729Q825 794 806 824Q787 854 737 854Q680 854 613 830.5Q546 807 463 756L291 0H-8ZM836 1157Q800 1157 769.5 1166Q739 1175 712.5 1185.5Q686 1196 664 1205Q642 1214 623 1214Q594 1214 577 1199Q560 1184 549 1155H396V1233Q428 1329 483.5 1377Q539 1425 621 1425Q657 1425 688 1416.5Q719 1408 745.5 1398.5Q772 1389 794.5 1380.5Q817 1372 836 1372Q864 1372 879.5 1386.5Q895 1401 908 1427H1061V1350Q996 1157 836 1157Z" glyph-name="ntilde" horiz-adv-x="1171" unicode="&#241;" /><glyph d="M264 410H111L162 633H328L385 850H227L281 1073H446L543 1434H745L649 1073H856L952 1434H1155L1059 1073H1219L1165 850H997L940 633H1100L1049 410H877L766 0H563L674 410H467L356 0H154ZM737 633 795 850H588L530 633Z" glyph-name="numbersign" horiz-adv-x="1229" unicode="#" /><glyph d="M537 195Q605 195 657.5 232Q710 269 745.5 330.5Q781 392 799 471.5Q817 551 817 637Q817 701 803.5 747Q790 793 766 822.5Q742 852 708 865.5Q674 879 633 879Q567 879 514 841Q461 803 424.5 740Q388 677 368 596.5Q348 516 348 432Q348 367 361.5 322Q375 277 399.5 249Q424 221 459 208Q494 195 537 195ZM526 -12Q414 -12 326.5 19.5Q239 51 178.5 109.5Q118 168 86.5 251Q55 334 55 438Q55 587 102.5 708Q150 829 230.5 914.5Q311 1000 417.5 1046Q524 1092 641 1092Q753 1092 840.5 1059Q928 1026 988 965Q1048 904 1079 819Q1110 734 1110 631Q1110 482 1065 362.5Q1020 243 941.5 160Q863 77 756.5 32.5Q650 -12 526 -12Z" glyph-name="o" horiz-adv-x="1165" unicode="o" /><glyph d="M537 195Q605 195 657.5 232Q710 269 745.5 330.5Q781 392 799 471.5Q817 551 817 637Q817 701 803.5 747Q790 793 766 822.5Q742 852 708 865.5Q674 879 633 879Q567 879 514 841Q461 803 424.5 740Q388 677 368 596.5Q348 516 348 432Q348 367 361.5 322Q375 277 399.5 249Q424 221 459 208Q494 195 537 195ZM526 -12Q414 -12 326.5 19.5Q239 51 178.5 109.5Q118 168 86.5 251Q55 334 55 438Q55 587 102.5 708Q150 829 230.5 914.5Q311 1000 417.5 1046Q524 1092 641 1092Q753 1092 840.5 1059Q928 1026 988 965Q1048 904 1079 819Q1110 734 1110 631Q1110 482 1065 362.5Q1020 243 941.5 160Q863 77 756.5 32.5Q650 -12 526 -12ZM580 1214 687 1434H977V1348L742 1151H580Z" glyph-name="oacute" horiz-adv-x="1165" unicode="&#243;" /><glyph d="M537 195Q605 195 657.5 232Q710 269 745.5 330.5Q781 392 799 471.5Q817 551 817 637Q817 701 803.5 747Q790 793 766 822.5Q742 852 708 865.5Q674 879 633 879Q567 879 514 841Q461 803 424.5 740Q388 677 368 596.5Q348 516 348 432Q348 367 361.5 322Q375 277 399.5 249Q424 221 459 208Q494 195 537 195ZM526 -12Q414 -12 326.5 19.5Q239 51 178.5 109.5Q118 168 86.5 251Q55 334 55 438Q55 587 102.5 708Q150 829 230.5 914.5Q311 1000 417.5 1046Q524 1092 641 1092Q753 1092 840.5 1059Q928 1026 988 965Q1048 904 1079 819Q1110 734 1110 631Q1110 482 1065 362.5Q1020 243 941.5 160Q863 77 756.5 32.5Q650 -12 526 -12ZM387 1227 604 1434H809L956 1227V1151H788L684 1247L538 1151H387Z" glyph-name="ocircumflex" horiz-adv-x="1165" unicode="&#244;" /><glyph d="M537 195Q605 195 657.5 232Q710 269 745.5 330.5Q781 392 799 471.5Q817 551 817 637Q817 701 803.5 747Q790 793 766 822.5Q742 852 708 865.5Q674 879 633 879Q567 879 514 841Q461 803 424.5 740Q388 677 368 596.5Q348 516 348 432Q348 367 361.5 322Q375 277 399.5 249Q424 221 459 208Q494 195 537 195ZM526 -12Q414 -12 326.5 19.5Q239 51 178.5 109.5Q118 168 86.5 251Q55 334 55 438Q55 587 102.5 708Q150 829 230.5 914.5Q311 1000 417.5 1046Q524 1092 641 1092Q753 1092 840.5 1059Q928 1026 988 965Q1048 904 1079 819Q1110 734 1110 631Q1110 482 1065 362.5Q1020 243 941.5 160Q863 77 756.5 32.5Q650 -12 526 -12ZM494 1159Q462 1159 435.5 1170.5Q409 1182 390 1202Q371 1222 361 1248.5Q351 1275 351 1305Q351 1338 364 1366.5Q377 1395 399 1415.5Q421 1436 450.5 1448Q480 1460 512 1460Q544 1460 571 1448.5Q598 1437 617.5 1417Q637 1397 647.5 1370.5Q658 1344 658 1315Q658 1281 644.5 1252.5Q631 1224 608.5 1203Q586 1182 556 1170.5Q526 1159 494 1159ZM887 1159Q855 1159 828.5 1170.5Q802 1182 783 1202Q764 1222 754 1248.5Q744 1275 744 1305Q744 1338 757 1366.5Q770 1395 792.5 1415.5Q815 1436 844.5 1448Q874 1460 906 1460Q938 1460 965 1448.5Q992 1437 1011 1417Q1030 1397 1040.5 1370.5Q1051 1344 1051 1315Q1051 1281 1037.5 1252.5Q1024 1224 1001.5 1203Q979 1182 949 1170.5Q919 1159 887 1159Z" glyph-name="odieresis" horiz-adv-x="1165" unicode="&#246;" /><glyph d="M526 -12Q414 -12 326.5 19.5Q239 51 178.5 109.5Q118 168 86.5 251Q55 334 55 438Q55 587 102.5 708Q150 829 230.5 914.5Q311 1000 417.5 1046Q524 1092 641 1092Q771 1092 859 1041Q947 990 995 899Q1063 989 1161 1040.5Q1259 1092 1389 1092Q1485 1092 1555 1064.5Q1625 1037 1670.5 986Q1716 935 1738 863.5Q1760 792 1759 705Q1759 596 1724 471H1090V430Q1090 365 1103 320.5Q1116 276 1141.5 248Q1167 220 1206 207.5Q1245 195 1296 195Q1372 195 1437 214Q1502 233 1561 270H1657L1612 70Q1583 55 1546.5 40Q1510 25 1466.5 13Q1423 1 1372.5 -6.5Q1322 -14 1264 -14Q1126 -14 1039 32Q952 78 905 168Q833 80 736 34Q639 -12 526 -12ZM537 195Q605 195 657.5 232Q710 269 745.5 330.5Q781 392 799 471.5Q817 551 817 637Q817 701 803.5 747Q790 793 766 822.5Q742 852 708 865.5Q674 879 633 879Q567 879 514 841Q461 803 424.5 740Q388 677 368 596.5Q348 516 348 432Q348 367 361.5 322Q375 277 399.5 249Q424 221 459 208Q494 195 537 195ZM1366 901Q1272 901 1208.5 833Q1145 765 1114 651H1493Q1498 673 1499.5 693Q1501 713 1501 731Q1501 818 1465 859.5Q1429 901 1366 901Z" glyph-name="oe" horiz-adv-x="1804" unicode="&#339;" /><glyph d="M274 -338Q191 -338 144.5 -296Q98 -254 98 -188Q98 -154 111 -124.5Q124 -95 145 -71.5Q166 -48 192.5 -30Q219 -12 246 0H426Q380 -29 352 -56Q324 -83 324 -117Q324 -142 340.5 -154Q357 -166 399 -166H438L406 -303Q380 -319 346.5 -328.5Q313 -338 274 -338Z" glyph-name="ogonek" horiz-adv-x="819" unicode="&#731;" /><glyph d="M537 195Q605 195 657.5 232Q710 269 745.5 330.5Q781 392 799 471.5Q817 551 817 637Q817 701 803.5 747Q790 793 766 822.5Q742 852 708 865.5Q674 879 633 879Q567 879 514 841Q461 803 424.5 740Q388 677 368 596.5Q348 516 348 432Q348 367 361.5 322Q375 277 399.5 249Q424 221 459 208Q494 195 537 195ZM526 -12Q414 -12 326.5 19.5Q239 51 178.5 109.5Q118 168 86.5 251Q55 334 55 438Q55 587 102.5 708Q150 829 230.5 914.5Q311 1000 417.5 1046Q524 1092 641 1092Q753 1092 840.5 1059Q928 1026 988 965Q1048 904 1079 819Q1110 734 1110 631Q1110 482 1065 362.5Q1020 243 941.5 160Q863 77 756.5 32.5Q650 -12 526 -12ZM410 1348V1434H693L771 1214V1151H590Z" glyph-name="ograve" horiz-adv-x="1165" unicode="&#242;" /><glyph d="M649 1090 375 952H293L344 1174L836 1434H1049L719 0H399Z" glyph-name="one" horiz-adv-x="1229" unicode="1" /><glyph d="M352 1198 233 1143H188L229 1319L473 1434H647L465 645H225ZM1303 1493H1526L238 -70H14ZM866 178 1110 354Q1147 380 1178.5 405Q1210 430 1233.5 455Q1257 480 1270.5 504.5Q1284 529 1284 555Q1284 589 1263 608Q1242 627 1196 627Q1150 627 1111 611Q1072 595 1044 573H967L1006 743Q1055 771 1113 786Q1171 801 1245 801Q1315 801 1367.5 785Q1420 769 1455.5 740.5Q1491 712 1508.5 671.5Q1526 631 1526 582Q1526 534 1508.5 493Q1491 452 1456.5 413Q1422 374 1372 336Q1322 298 1257 256L1126 172H1442L1401 0H825Z" glyph-name="onehalf" horiz-adv-x="1583" unicode="&#189;" /><glyph d="M352 1198 233 1143H188L229 1319L473 1434H647L465 645H225ZM1303 1493H1526L238 -70H14ZM1063 162H705L745 336L1208 788H1425L1315 311H1397L1362 162H1280L1243 0H1026ZM1100 311 1157 555H1151L905 315V311Z" glyph-name="onequarter" horiz-adv-x="1487" unicode="&#188;" /><glyph d="M770 528Q714 528 677.5 552Q641 576 629 629Q581 572 515 545Q449 518 371 518Q311 518 264 535.5Q217 553 185 585Q153 617 136 662.5Q119 708 119 764Q119 843 149.5 902Q180 961 235 1000Q290 1039 365 1058Q440 1077 530 1077Q577 1077 621 1071.5Q665 1066 702 1057L709 1079Q719 1127 715 1159.5Q711 1192 694 1212.5Q677 1233 648 1242Q619 1251 580 1251Q517 1251 456 1236Q395 1221 344 1192H262L309 1389Q374 1416 455 1433Q536 1450 635 1450Q733 1450 807.5 1427.5Q882 1405 927.5 1357Q973 1309 987 1234Q1001 1159 977 1055L856 528ZM477 690Q524 690 562.5 710Q601 730 635 756L670 907Q616 924 553 924Q472 924 428.5 888Q385 852 385 784Q385 736 409.5 713Q434 690 477 690Z" glyph-name="ordfeminine" horiz-adv-x="915" unicode="&#170;" /><glyph d="M590 711Q635 711 678.5 735Q722 759 756.5 805Q791 851 812.5 917.5Q834 984 834 1069Q834 1111 824 1146.5Q814 1182 793.5 1207.5Q773 1233 742.5 1247.5Q712 1262 672 1262Q629 1262 585.5 1239.5Q542 1217 507 1171Q472 1125 450 1056.5Q428 988 428 897Q428 803 473 757Q518 711 590 711ZM580 516Q484 516 405 544Q326 572 270 623Q214 674 183 746Q152 818 152 905Q152 1032 196 1133Q240 1234 313 1304.5Q386 1375 481 1412.5Q576 1450 678 1450Q767 1450 845.5 1424.5Q924 1399 983 1350Q1042 1301 1076 1228Q1110 1155 1110 1061Q1110 976 1089.5 902.5Q1069 829 1032.5 768.5Q996 708 945.5 661Q895 614 836.5 582Q778 550 712.5 533Q647 516 580 516Z" glyph-name="ordmasculine" horiz-adv-x="1065" unicode="&#186;" /><glyph d="M526 -12Q374 -12 270 43L188 -51H18V4L143 147Q100 204 77.5 277Q55 350 55 438Q55 587 102.5 708Q150 829 230.5 914.5Q311 1000 417.5 1046Q524 1092 641 1092Q718 1092 784.5 1075.5Q851 1059 903 1028L975 1110H1147V1055L1028 918Q1068 861 1089 788.5Q1110 716 1110 631Q1110 482 1065 362.5Q1020 243 941.5 160Q863 77 756.5 32.5Q650 -12 526 -12ZM338 432Q338 417 338 403Q338 389 340 377L748 848Q701 881 633 881Q565 881 510 842.5Q455 804 417 741Q379 678 358.5 597Q338 516 338 432ZM537 193Q607 193 661 230Q715 267 751.5 329Q788 391 806.5 471Q825 551 825 637Q825 649 824 660Q823 671 823 682L422 219Q467 193 537 193Z" glyph-name="oslash" horiz-adv-x="1165" unicode="&#248;" /><glyph d="M537 195Q605 195 657.5 232Q710 269 745.5 330.5Q781 392 799 471.5Q817 551 817 637Q817 701 803.5 747Q790 793 766 822.5Q742 852 708 865.5Q674 879 633 879Q567 879 514 841Q461 803 424.5 740Q388 677 368 596.5Q348 516 348 432Q348 367 361.5 322Q375 277 399.5 249Q424 221 459 208Q494 195 537 195ZM526 -12Q414 -12 326.5 19.5Q239 51 178.5 109.5Q118 168 86.5 251Q55 334 55 438Q55 587 102.5 708Q150 829 230.5 914.5Q311 1000 417.5 1046Q524 1092 641 1092Q753 1092 840.5 1059Q928 1026 988 965Q1048 904 1079 819Q1110 734 1110 631Q1110 482 1065 362.5Q1020 243 941.5 160Q863 77 756.5 32.5Q650 -12 526 -12ZM809 1157Q773 1157 742.5 1166Q712 1175 685.5 1185.5Q659 1196 637 1205Q615 1214 596 1214Q567 1214 550 1199Q533 1184 522 1155H369V1233Q401 1329 456.5 1377Q512 1425 594 1425Q630 1425 661 1416.5Q692 1408 718.5 1398.5Q745 1389 767.5 1380.5Q790 1372 809 1372Q837 1372 852.5 1386.5Q868 1401 881 1427H1034V1350Q969 1157 809 1157Z" glyph-name="otilde" horiz-adv-x="1165" unicode="&#245;" /><glyph d="M238 1075H336Q418 1075 454.5 1038Q491 1001 496 938Q526 971 562.5 999Q599 1027 640.5 1048Q682 1069 727 1080.5Q772 1092 819 1092Q884 1092 942 1069.5Q1000 1047 1043.5 999Q1087 951 1112 875.5Q1137 800 1137 694Q1137 530 1095.5 403Q1054 276 980.5 189Q907 102 805.5 57Q704 12 584 12Q487 12 423.5 38.5Q360 65 319 102L221 -332H-82ZM705 870Q646 870 591.5 848Q537 826 475 782L358 270Q370 259 386 248.5Q402 238 422 230Q442 222 468 216.5Q494 211 526 211Q604 211 663 246.5Q722 282 761.5 345.5Q801 409 820.5 496.5Q840 584 840 688Q840 779 802.5 824.5Q765 870 705 870Z" glyph-name="p" horiz-adv-x="1180" unicode="p" /><glyph d="M537 621H530Q451 621 382.5 644Q314 667 264 710.5Q214 754 185 817.5Q156 881 156 963Q156 1055 180.5 1126Q205 1197 248 1249.5Q291 1302 350 1337.5Q409 1373 478.5 1394.5Q548 1416 624.5 1425Q701 1434 780 1434H1296L922 -186H709L1036 1225H891L563 -186H350Z" glyph-name="paragraph" horiz-adv-x="1212" unicode="&#182;" /><glyph d="M440 -100Q370 -73 306.5 -22Q243 29 194.5 105.5Q146 182 117 285.5Q88 389 88 522Q88 634 109.5 743.5Q131 853 172.5 954.5Q214 1056 275 1146Q336 1236 414.5 1309.5Q493 1383 589 1436.5Q685 1490 797 1518H879L829 1313Q726 1275 641 1199Q556 1123 495 1018Q434 913 400.5 785Q367 657 367 516Q367 418 382 346.5Q397 275 422.5 225Q448 175 481 144Q514 113 549 96L504 -100H440Z" glyph-name="parenleft" horiz-adv-x="690" unicode="(" /><glyph d="M-51 104Q52 142 137 218Q222 294 283 399Q344 504 378 632Q412 760 412 901Q412 999 397 1070.5Q382 1142 356.5 1192Q331 1242 298 1273Q265 1304 229 1321L274 1518H338Q408 1490 471.5 1439Q535 1388 583.5 1311.5Q632 1235 661 1131.5Q690 1028 690 895Q690 784 668.5 674.5Q647 565 605.5 463.5Q564 362 503 271.5Q442 181 363.5 107.5Q285 34 189 -19.5Q93 -73 -18 -100H-100Z" glyph-name="parenright" horiz-adv-x="690" unicode=")" /><glyph d="M449 852Q494 851 526.5 881.5Q559 912 580 957Q601 1002 611 1053.5Q621 1105 621 1147Q621 1173 616 1197.5Q611 1222 598.5 1240.5Q586 1259 566 1270.5Q546 1282 516 1282Q470 1282 437 1251Q404 1220 383 1174Q362 1128 352 1076.5Q342 1025 342 983Q342 957 347 933.5Q352 910 364.5 892Q377 874 397.5 863.5Q418 853 449 852ZM430 684Q359 684 301 706.5Q243 729 201 769Q159 809 136 865Q113 921 113 989Q113 1080 144 1163Q175 1246 230.5 1310Q286 1374 363 1412Q440 1450 532 1450Q603 1450 661.5 1428Q720 1406 762 1366Q804 1326 827 1268.5Q850 1211 850 1141Q850 1052 818.5 970Q787 888 731.5 824Q676 760 598.5 722Q521 684 430 684ZM1391 1493H1614L326 -70H102ZM1208 152Q1253 152 1285.5 182.5Q1318 213 1339 258Q1360 303 1370 354Q1380 405 1380 446Q1380 472 1375 496.5Q1370 521 1358 540Q1346 559 1326 570.5Q1306 582 1276 582Q1246 582 1221 567.5Q1196 553 1177 529Q1158 505 1143.5 474Q1129 443 1120 409.5Q1111 376 1106.5 343Q1102 310 1102 283Q1102 257 1107 233Q1112 209 1124 191Q1136 173 1156.5 162.5Q1177 152 1208 152ZM1190 -16Q1119 -16 1060.5 6Q1002 28 960 67.5Q918 107 895 163Q872 219 872 287Q872 377 903 461Q934 545 990 609Q1046 673 1123 711.5Q1200 750 1292 750Q1363 750 1421 728Q1479 706 1520.5 665.5Q1562 625 1585 568Q1608 511 1608 440Q1608 352 1577 269.5Q1546 187 1490.5 123.5Q1435 60 1358 22Q1281 -16 1190 -16Z" glyph-name="percent" horiz-adv-x="1638" unicode="%" /><glyph d="M215 -12Q180 -12 150.5 0.5Q121 13 100 34.5Q79 56 67 85Q55 114 55 147Q55 183 69.5 214.5Q84 246 108.5 268.5Q133 291 165.5 304Q198 317 233 317Q269 317 299 304Q329 291 350.5 269.5Q372 248 383.5 219Q395 190 395 158Q395 121 380 89.5Q365 58 340 35.5Q315 13 282.5 0.5Q250 -12 215 -12Z" glyph-name="period" horiz-adv-x="614" unicode="." /><glyph d="M215 440Q180 440 150.5 452.5Q121 465 100 487Q79 509 67 538Q55 567 55 600Q55 636 69.5 667Q84 698 108.5 721Q133 744 165.5 757Q198 770 233 770Q269 770 299 757Q329 744 350.5 722Q372 700 383.5 671Q395 642 395 610Q395 573 380 542Q365 511 340 488.5Q315 466 282.5 453Q250 440 215 440Z" glyph-name="periodcentered" horiz-adv-x="416" unicode="&#183;" /><glyph d="M461 852Q506 851 538.5 881.5Q571 912 592 957Q613 1002 623 1053.5Q633 1105 633 1147Q633 1173 628 1197.5Q623 1222 610.5 1240.5Q598 1259 578 1270.5Q558 1282 528 1282Q482 1282 449 1251Q416 1220 395 1174Q374 1128 364 1076.5Q354 1025 354 983Q354 957 359 933.5Q364 910 376.5 892Q389 874 409.5 863.5Q430 853 461 852ZM442 684Q371 684 313 706.5Q255 729 213 769Q171 809 148 865Q125 921 125 989Q125 1080 156 1163Q187 1246 242.5 1310Q298 1374 375.5 1412Q453 1450 545 1450Q615 1450 673.5 1428Q732 1406 774 1366Q816 1326 839 1268.5Q862 1211 862 1141Q862 1052 830.5 970Q799 888 743.5 824Q688 760 610.5 722Q533 684 442 684ZM1403 1493H1626L338 -70H115ZM1221 152Q1266 152 1298.5 182.5Q1331 213 1352 258Q1373 303 1383 354Q1393 405 1393 446Q1393 472 1388 496.5Q1383 521 1370.5 540Q1358 559 1338 570.5Q1318 582 1288 582Q1258 582 1233 567.5Q1208 553 1189 529Q1170 505 1155.5 474Q1141 443 1132 409.5Q1123 376 1118.5 343Q1114 310 1114 283Q1114 257 1119 233Q1124 209 1136.5 191Q1149 173 1169.5 162.5Q1190 152 1221 152ZM1202 -16Q1131 -16 1073 6Q1015 28 973 67.5Q931 107 908 163Q885 219 885 287Q885 377 916 461Q947 545 1002.5 609Q1058 673 1135.5 711.5Q1213 750 1305 750Q1375 750 1433.5 728Q1492 706 1533 665.5Q1574 625 1597 568Q1620 511 1620 440Q1620 352 1589 269.5Q1558 187 1502.5 123.5Q1447 60 1370 22Q1293 -16 1202 -16ZM2021 152Q2066 152 2098.5 182.5Q2131 213 2152 258Q2173 303 2183 354Q2193 405 2193 446Q2193 472 2188 496.5Q2183 521 2171 540Q2159 559 2139 570.5Q2119 582 2089 582Q2059 582 2034 567.5Q2009 553 1990 529Q1971 505 1956.5 474Q1942 443 1933 409.5Q1924 376 1919.5 343Q1915 310 1915 283Q1915 257 1920 233Q1925 209 1937 191Q1949 173 1969.5 162.5Q1990 152 2021 152ZM2003 -16Q1932 -16 1874 6Q1816 28 1774 67.5Q1732 107 1709 163Q1686 219 1686 287Q1686 377 1717 461Q1748 545 1803.5 609Q1859 673 1936 711.5Q2013 750 2105 750Q2176 750 2234 728Q2292 706 2333.5 665.5Q2375 625 2398 568Q2421 511 2421 440Q2421 352 2390 269.5Q2359 187 2303.5 123.5Q2248 60 2171 22Q2094 -16 2003 -16Z" glyph-name="perthousand" horiz-adv-x="2458" unicode="&#8240;" /><glyph d="M504 590H139L195 825H559L647 1210H897L809 825H1171L1116 590H754L666 205H416Z" glyph-name="plus" horiz-adv-x="1229" unicode="+" /><glyph d="M678 133Q619 74 540.5 43Q462 12 379 12Q314 12 254.5 32Q195 52 149.5 96Q104 140 76.5 208.5Q49 277 49 375Q49 535 94.5 666.5Q140 798 219.5 892Q299 986 405 1038Q511 1090 633 1090Q680 1090 720.5 1080.5Q761 1071 795.5 1054.5Q830 1038 858 1016Q886 994 907 969Q924 990 944.5 1009.5Q965 1029 990 1043.5Q1015 1058 1045 1066.5Q1075 1075 1110 1075H1194L872 -332H571ZM485 215Q597 215 719 315L834 817Q811 837 770.5 854.5Q730 872 659 872Q588 872 530 833.5Q472 795 431 730Q390 665 368 578.5Q346 492 346 395Q346 344 356 309.5Q366 275 384 254Q402 233 427.5 224Q453 215 485 215Z" glyph-name="q" horiz-adv-x="1190" unicode="q" /><glyph d="M225 422Q231 486 241.5 537.5Q252 589 275.5 635.5Q299 682 339 726.5Q379 771 444 819Q480 846 521 874Q562 902 596.5 935Q631 968 653.5 1007.5Q676 1047 676 1096Q676 1160 633 1189.5Q590 1219 524 1219Q456 1219 401 1198.5Q346 1178 301 1147H184L236 1370Q299 1407 384 1429.5Q469 1452 578 1452Q658 1452 732.5 1435Q807 1418 864.5 1379Q922 1340 956.5 1275.5Q991 1211 991 1116Q991 1051 969 993.5Q947 936 908 885.5Q869 835 815.5 790.5Q762 746 698 709Q643 677 598.5 648Q554 619 521.5 586.5Q489 554 468 514.5Q447 475 438 422ZM276 -12Q241 -12 211.5 0.5Q182 13 161 34.5Q140 56 128.5 85Q117 114 117 147Q117 183 131.5 214.5Q146 246 170.5 268.5Q195 291 227.5 304Q260 317 295 317Q331 317 361 304Q391 291 412 269.5Q433 248 445 219Q457 190 457 158Q457 121 442 89.5Q427 58 402 35.5Q377 13 344.5 0.5Q312 -12 276 -12Z" glyph-name="question" horiz-adv-x="920" unicode="?" /><glyph d="M756 864Q750 800 739.5 748.5Q729 697 705.5 650.5Q682 604 641.5 559.5Q601 515 537 467Q501 440 460 412Q419 384 384.5 351Q350 318 327.5 278.5Q305 239 305 190Q305 158 316.5 135Q328 112 348 97Q368 82 396 75Q424 68 457 68Q525 68 580 88Q635 108 680 139H797L745 -84Q682 -121 597 -143.5Q512 -166 403 -166Q323 -166 248.5 -149Q174 -132 116.5 -93Q59 -54 24.5 10.5Q-10 75 -10 170Q-10 234 12 292Q34 350 73 401Q112 452 165.5 496Q219 540 283 578Q338 610 382.5 639Q427 668 459.5 700.5Q492 733 513 772Q534 811 543 864ZM705 1298Q740 1298 769.5 1285.5Q799 1273 820 1251.5Q841 1230 852.5 1201Q864 1172 864 1139Q864 1103 849.5 1071.5Q835 1040 810.5 1017.5Q786 995 753.5 982Q721 969 686 969Q650 969 620 981.5Q590 994 569 1016Q548 1038 536 1067Q524 1096 524 1128Q524 1165 539 1196.5Q554 1228 579 1250.5Q604 1273 636.5 1285.5Q669 1298 705 1298Z" glyph-name="questiondown" horiz-adv-x="920" unicode="&#191;" /><glyph d="M229 1284 264 1434H543L508 1284L383 975H207ZM600 1284 635 1434H913L879 1284L754 975H578Z" glyph-name="quotedbl" horiz-adv-x="756" unicode="&quot;" /><glyph d="M-100 -70Q-37 -63 2 -44Q41 -25 41 4Q41 13 38.5 19Q36 25 30.5 30Q25 35 17.5 39.5Q10 44 0 51Q-23 67 -36 91Q-49 115 -49 147Q-49 183 -36 213Q-23 243 -0.5 264.5Q22 286 51.5 297.5Q81 309 113 309Q146 309 174.5 297.5Q203 286 224.5 265.5Q246 245 258 215.5Q270 186 270 150Q270 67 241 3Q212 -61 159.5 -105.5Q107 -150 33 -174.5Q-41 -199 -131 -203ZM299 -70Q362 -63 401 -44Q440 -25 440 4Q440 13 437.5 19Q435 25 429.5 30Q424 35 416.5 39.5Q409 44 399 51Q376 67 363 91Q350 115 350 147Q350 183 363 213Q376 243 398.5 264.5Q421 286 450.5 297.5Q480 309 512 309Q545 309 574 297.5Q603 286 624 265.5Q645 245 657.5 215.5Q670 186 670 150Q670 67 641 3Q612 -61 559 -105.5Q506 -150 432 -174.5Q358 -199 268 -203Z" glyph-name="quotedblbase" horiz-adv-x="774" unicode="&#8222;" /><glyph d="M317 928Q284 928 255.5 939.5Q227 951 205.5 971.5Q184 992 172 1021.5Q160 1051 160 1087Q160 1169 189 1233.5Q218 1298 271 1342.5Q324 1387 397.5 1411.5Q471 1436 561 1440L530 1307Q467 1300 428 1281Q389 1262 389 1233Q389 1214 399.5 1206.5Q410 1199 430 1186Q453 1170 466 1146Q479 1122 479 1090Q479 1054 466 1024Q453 994 430.5 972.5Q408 951 378.5 939.5Q349 928 317 928ZM717 928Q684 928 655 939.5Q626 951 605 971.5Q584 992 571.5 1021.5Q559 1051 559 1087Q559 1169 588 1233.5Q617 1298 670 1342.5Q723 1387 797 1411.5Q871 1436 961 1440L930 1307Q867 1300 827.5 1281Q788 1262 788 1233Q788 1224 790.5 1218Q793 1212 798.5 1207Q804 1202 811.5 1197.5Q819 1193 829 1186Q852 1170 865.5 1146Q879 1122 879 1090Q879 1054 866 1024Q853 994 830.5 972.5Q808 951 778.5 939.5Q749 928 717 928Z" glyph-name="quotedblleft" horiz-adv-x="795" unicode="&#8220;" /><glyph d="M147 1069Q210 1075 249.5 1094.5Q289 1114 289 1143Q289 1161 278.5 1168.5Q268 1176 248 1190Q225 1205 212 1229.5Q199 1254 199 1286Q199 1322 212 1352Q225 1382 247 1403Q269 1424 298.5 1436Q328 1448 360 1448Q393 1448 422 1436.5Q451 1425 472.5 1404Q494 1383 506 1353.5Q518 1324 518 1288Q518 1206 489 1142Q460 1078 407 1033.5Q354 989 280.5 964.5Q207 940 117 936ZM547 1069Q610 1075 649 1094.5Q688 1114 688 1143Q688 1161 677.5 1168.5Q667 1176 647 1190Q624 1205 611 1229.5Q598 1254 598 1286Q598 1322 611 1352Q624 1382 646.5 1403Q669 1424 698.5 1436Q728 1448 760 1448Q793 1448 822 1436.5Q851 1425 872 1404Q893 1383 905.5 1353.5Q918 1324 918 1288Q918 1206 889 1142Q860 1078 807 1033.5Q754 989 680 964.5Q606 940 516 936Z" glyph-name="quotedblright" horiz-adv-x="774" unicode="&#8221;" /><glyph d="M317 928Q284 928 255.5 939.5Q227 951 205.5 971.5Q184 992 172 1021.5Q160 1051 160 1087Q160 1169 189 1233.5Q218 1298 271 1342.5Q324 1387 397.5 1411.5Q471 1436 561 1440L530 1307Q467 1300 428 1281Q389 1262 389 1233Q389 1214 399.5 1206.5Q410 1199 430 1186Q453 1170 466 1146Q479 1122 479 1090Q479 1054 466 1024Q453 994 430.5 972.5Q408 951 378.5 939.5Q349 928 317 928Z" glyph-name="quoteleft" horiz-adv-x="375" unicode="&#8216;" /><glyph d="M145 1069Q208 1075 248.5 1094.5Q289 1114 289 1143Q289 1161 278.5 1168.5Q268 1176 248 1190Q225 1205 212 1229.5Q199 1254 199 1286Q199 1322 212 1352Q225 1382 247 1403Q269 1424 298.5 1436Q328 1448 360 1448Q393 1448 422 1436.5Q451 1425 472.5 1404Q494 1383 506 1353.5Q518 1324 518 1288Q518 1206 489 1142Q460 1078 407 1033.5Q354 989 280.5 964.5Q207 940 117 936Z" glyph-name="quoteright" horiz-adv-x="375" unicode="&#8217;" /><glyph d="M-100 -70Q-37 -63 2 -44Q41 -25 41 4Q41 13 38.5 19Q36 25 30.5 30Q25 35 17.5 39.5Q10 44 0 51Q-23 67 -36 91Q-49 115 -49 147Q-49 183 -36 213Q-23 243 -0.5 264.5Q22 286 51.5 297.5Q81 309 113 309Q146 309 174.5 297.5Q203 286 224.5 265.5Q246 245 258 215.5Q270 186 270 150Q270 67 241 3Q212 -61 159.5 -105.5Q107 -150 33 -174.5Q-41 -199 -131 -203Z" glyph-name="quotesinglbase" horiz-adv-x="375" unicode="&#8218;" /><glyph d="M229 1284 264 1434H543L508 1284L385 975H209Z" glyph-name="quotesingle" horiz-adv-x="385" unicode="&apos;" /><glyph d="M238 1075H332Q380 1075 412 1062Q444 1049 462.5 1026Q481 1003 487.5 970Q494 937 492 897Q522 939 557 973.5Q592 1008 631.5 1032.5Q671 1057 714.5 1071Q758 1085 803 1085Q820 1085 835 1082.5Q850 1080 864 1075L809 823H772Q666 823 587 791.5Q508 760 457 717L293 0H-8Z" glyph-name="r" horiz-adv-x="795" unicode="r" /><glyph d="M520 717Q446 717 378 741.5Q310 766 258 813Q206 860 174.5 928Q143 996 143 1083Q143 1171 174.5 1239Q206 1307 258 1354Q310 1401 378 1425.5Q446 1450 520 1450Q593 1450 661 1425.5Q729 1401 781.5 1354Q834 1307 865.5 1239Q897 1171 897 1083Q897 996 865.5 928Q834 860 781.5 813Q729 766 661 741.5Q593 717 520 717ZM520 791Q581 791 634 809.5Q687 828 726.5 864.5Q766 901 788.5 955.5Q811 1010 811 1083Q811 1156 788.5 1211Q766 1266 726.5 1302.5Q687 1339 634 1357.5Q581 1376 520 1376Q459 1376 406 1357.5Q353 1339 313.5 1302.5Q274 1266 251.5 1211Q229 1156 229 1083Q229 1010 251.5 955.5Q274 901 313.5 864.5Q353 828 406 809.5Q459 791 520 791ZM520 1032H485V903H369V1282H532Q688 1282 688 1157Q688 1123 672.5 1097.5Q657 1072 629 1057L696 940V903H586ZM522 1108Q550 1108 560.5 1121Q571 1134 571 1159Q571 1181 560.5 1193.5Q550 1206 522 1206H485V1108Z" glyph-name="registered" horiz-adv-x="791" unicode="&#174;" /><glyph d="M598 1286Q633 1286 656.5 1310Q680 1334 680 1372Q680 1406 660 1425Q640 1444 608 1444Q573 1444 551.5 1420Q530 1396 530 1354Q530 1323 548 1304.5Q566 1286 598 1286ZM596 1159Q553 1159 515 1172Q477 1185 449 1210Q421 1235 405 1271Q389 1307 389 1352Q389 1402 407.5 1442.5Q426 1483 457 1511.5Q488 1540 528 1555.5Q568 1571 612 1571Q655 1571 693 1557.5Q731 1544 759 1518.5Q787 1493 803 1456.5Q819 1420 819 1374Q819 1324 800.5 1284Q782 1244 751.5 1216.5Q721 1189 680.5 1174Q640 1159 596 1159Z" glyph-name="ring" horiz-adv-x="819" unicode="&#730;" /><glyph d="M674 1610Q709 1610 732.5 1634Q756 1658 756 1696Q756 1730 736 1749Q716 1768 684 1768Q649 1768 627.5 1744Q606 1720 606 1678Q606 1647 624 1628.5Q642 1610 674 1610ZM672 1483Q629 1483 591 1496Q553 1509 525 1534Q497 1559 481 1595Q465 1631 465 1676Q465 1726 483.5 1766.5Q502 1807 533 1835.5Q564 1864 604 1879.5Q644 1895 688 1895Q731 1895 769 1881.5Q807 1868 835 1842.5Q863 1817 879 1780.5Q895 1744 895 1698Q895 1648 876.5 1608Q858 1568 827.5 1540.5Q797 1513 756.5 1498Q716 1483 672 1483Z" glyph-name="ring.cap" horiz-adv-x="819" /><glyph d="M336 -12Q265 -12 207 -3Q149 6 103 20.5Q57 35 22.5 53.5Q-12 72 -37 90L10 293H106Q141 253 200 226Q259 199 344 199Q379 199 410.5 205Q442 211 465.5 223.5Q489 236 502.5 256Q516 276 516 305Q516 326 507.5 342Q499 358 482 371Q465 384 438.5 395.5Q412 407 375 420Q307 444 255 471Q203 498 168 533Q133 568 114.5 614.5Q96 661 96 723Q96 807 126 874.5Q156 942 212.5 988.5Q269 1035 350 1060Q431 1085 532 1085Q593 1085 644 1077Q695 1069 737.5 1055Q780 1041 814.5 1023Q849 1005 877 985L831 797H741Q707 828 650.5 852.5Q594 877 520 877Q442 877 403.5 850.5Q365 824 365 774Q365 756 372.5 741.5Q380 727 397 714Q414 701 442 688.5Q470 676 512 662Q573 640 624.5 615.5Q676 591 713.5 557Q751 523 772 477Q793 431 793 367Q793 279 761 209Q729 139 670 90Q611 41 526.5 14.5Q442 -12 336 -12Z" glyph-name="s" horiz-adv-x="889" unicode="s" /><glyph d="M336 -12Q265 -12 207 -3Q149 6 103 20.5Q57 35 22.5 53.5Q-12 72 -37 90L10 293H106Q141 253 200 226Q259 199 344 199Q379 199 410.5 205Q442 211 465.5 223.5Q489 236 502.5 256Q516 276 516 305Q516 326 507.5 342Q499 358 482 371Q465 384 438.5 395.5Q412 407 375 420Q307 444 255 471Q203 498 168 533Q133 568 114.5 614.5Q96 661 96 723Q96 807 126 874.5Q156 942 212.5 988.5Q269 1035 350 1060Q431 1085 532 1085Q593 1085 644 1077Q695 1069 737.5 1055Q780 1041 814.5 1023Q849 1005 877 985L831 797H741Q707 828 650.5 852.5Q594 877 520 877Q442 877 403.5 850.5Q365 824 365 774Q365 756 372.5 741.5Q380 727 397 714Q414 701 442 688.5Q470 676 512 662Q573 640 624.5 615.5Q676 591 713.5 557Q751 523 772 477Q793 431 793 367Q793 279 761 209Q729 139 670 90Q611 41 526.5 14.5Q442 -12 336 -12ZM287 1358V1434H455L560 1337L705 1434H857V1358L640 1151H435Z" glyph-name="scaron" horiz-adv-x="889" unicode="&#353;" /><glyph d="M369 -268Q296 -268 237.5 -258Q179 -248 132.5 -232Q86 -216 49.5 -196.5Q13 -177 -16 -158L31 43H131Q150 24 175 6Q200 -12 230.5 -26Q261 -40 297 -48.5Q333 -57 375 -57Q468 -57 511.5 -29.5Q555 -2 555 49Q555 75 543.5 96.5Q532 118 506.5 138Q481 158 439.5 177.5Q398 197 338 219Q187 273 116 349.5Q45 426 45 543Q45 608 66 659Q87 710 124.5 747.5Q162 785 213 811Q264 837 324 852Q283 892 265.5 944.5Q248 997 248 1069Q248 1151 281.5 1221Q315 1291 376.5 1342Q438 1393 525 1421.5Q612 1450 719 1450Q789 1450 842.5 1442Q896 1434 938 1421Q980 1408 1012.5 1391.5Q1045 1375 1073 1358L1028 1157H922Q904 1171 883.5 1184Q863 1197 838 1207.5Q813 1218 782.5 1224.5Q752 1231 715 1231Q627 1231 574.5 1199.5Q522 1168 522 1114Q522 1089 529.5 1069Q537 1049 558.5 1031Q580 1013 618.5 995Q657 977 719 956Q801 929 863 898.5Q925 868 967 829Q1009 790 1030 740Q1051 690 1051 623Q1051 577 1036.5 529.5Q1022 482 989 439.5Q956 397 902 362.5Q848 328 770 307Q812 269 833 221.5Q854 174 854 111Q854 25 823 -44.5Q792 -114 730.5 -164Q669 -214 578.5 -241Q488 -268 369 -268ZM483 459Q517 445 548.5 433.5Q580 422 608 408Q687 429 726.5 464.5Q766 500 766 557Q766 585 755.5 606.5Q745 628 723 646Q701 664 668.5 680Q636 696 592 711Q563 720 536.5 729.5Q510 739 487 750Q404 737 365 697Q326 657 326 606Q326 562 361 526.5Q396 491 483 459Z" glyph-name="section" horiz-adv-x="1073" unicode="&#167;" /><glyph d="M-8 -94Q26 -91 54 -83Q82 -75 102 -63Q122 -51 133.5 -36.5Q145 -22 145 -6Q145 13 133.5 20.5Q122 28 100 43Q76 60 62.5 85.5Q49 111 49 145Q49 184 63 215.5Q77 247 101 269.5Q125 292 156.5 304.5Q188 317 223 317Q257 317 287.5 305Q318 293 340.5 270.5Q363 248 376 217Q389 186 389 147Q389 60 358 -7.5Q327 -75 271 -122Q215 -169 136.5 -195Q58 -221 -37 -225ZM346 582Q311 582 281.5 594.5Q252 607 231 628.5Q210 650 198 679Q186 708 186 741Q186 777 200.5 808.5Q215 840 240 862.5Q265 885 297 898Q329 911 365 911Q401 911 430.5 898Q460 885 481.5 863.5Q503 842 514.5 813Q526 784 526 752Q526 715 511 683.5Q496 652 471 629.5Q446 607 413.5 594.5Q381 582 346 582Z" glyph-name="semicolon" horiz-adv-x="614" unicode=";" /><glyph d="M217 125 997 1176V1184H276L334 1434H1303L1239 1161L532 0H217Z" glyph-name="seven" horiz-adv-x="1229" unicode="7" /><glyph d="M592 -16Q478 -16 384 17.5Q290 51 223.5 115.5Q157 180 120.5 275Q84 370 84 494Q84 569 94 647.5Q104 726 124.5 803Q145 880 176.5 953.5Q208 1027 250 1092Q302 1172 369.5 1237.5Q437 1303 519 1350Q601 1397 697.5 1422.5Q794 1448 905 1448Q966 1448 1017 1442Q1068 1436 1112.5 1424.5Q1157 1413 1194.5 1395.5Q1232 1378 1266 1354L1214 1143H1098Q1064 1180 1012 1201.5Q960 1223 895 1223Q827 1223 771.5 1207Q716 1191 670.5 1162Q625 1133 588.5 1092Q552 1051 522 1001Q493 953 471.5 899Q450 845 436 786Q502 840 587 873.5Q672 907 774 907Q857 907 928.5 882.5Q1000 858 1053 808Q1106 758 1136.5 683Q1167 608 1167 508Q1167 402 1126.5 307Q1086 212 1011.5 140Q937 68 830.5 26Q724 -16 592 -16ZM657 696Q622 696 587 689.5Q552 683 519.5 672Q487 661 458 647Q429 633 406 618Q401 580 399 541Q397 502 397 467Q397 408 406.5 357.5Q416 307 439.5 270Q463 233 503 211.5Q543 190 604 190Q663 190 711 212.5Q759 235 792.5 276.5Q826 318 844 375.5Q862 433 862 502Q862 591 812 643.5Q762 696 657 696Z" glyph-name="six" horiz-adv-x="1229" unicode="6" /><glyph d="M-109 -39 690 1518H913V1456L113 -100H-109Z" glyph-name="slash" horiz-adv-x="721" unicode="/" /><glyph glyph-name="space" horiz-adv-x="614" unicode=" " /><glyph d="M213 821H303Q300 880 302.5 939Q305 998 319 1057Q342 1156 392 1230Q442 1304 514 1352.5Q586 1401 678 1425.5Q770 1450 877 1450Q992 1450 1087 1422.5Q1182 1395 1251 1333L1204 1120H1096Q1054 1160 1001 1185Q948 1210 866 1210Q828 1210 790.5 1199.5Q753 1189 721 1167Q689 1145 665 1111.5Q641 1078 631 1032Q618 981 615 929Q612 877 610 821H952L905 612H606Q603 577 598.5 541.5Q594 506 586 471Q569 403 534.5 345.5Q500 288 455 250H1067L1010 0H27L74 211Q112 224 147.5 247Q183 270 212 301Q241 332 262.5 370.5Q284 409 295 453Q304 493 307.5 532.5Q311 572 311 612H166Z" glyph-name="sterling" horiz-adv-x="1229" unicode="&#163;" /><glyph d="M371 -16Q286 -16 227 8Q168 32 135 77.5Q102 123 95 188Q88 253 106 334L231 874H115L158 1075H276L342 1362H641L575 1075H768L725 874H528L403 328Q388 260 414 224Q440 188 524 188H575L537 10Q505 -2 467.5 -9Q430 -16 371 -16Z" glyph-name="t" horiz-adv-x="711" unicode="t" /><glyph d="M319 1434H502Q531 1434 552 1428Q573 1422 583.5 1404Q594 1386 594 1353Q594 1320 582 1266L512 956Q572 1015 655 1053.5Q738 1092 840 1092Q897 1092 951 1069.5Q1005 1047 1046 999Q1087 951 1112 875.5Q1137 800 1137 694Q1137 530 1095.5 403Q1054 276 980.5 189Q907 102 805.5 57Q704 12 584 12Q487 12 423.5 38.5Q360 65 319 102L221 -332H-82ZM705 870Q646 870 589.5 846Q533 822 471 778L356 272Q379 251 419.5 231Q460 211 526 211Q604 211 663 246.5Q722 282 761.5 345.5Q801 409 820.5 496.5Q840 584 840 688Q840 779 802.5 824.5Q765 870 705 870Z" glyph-name="thorn" horiz-adv-x="1180" unicode="&#254;" /><glyph d="M504 -16Q352 -16 239 26Q126 68 51 137L100 348H215Q260 285 334.5 250Q409 215 494 213Q551 212 599 225.5Q647 239 682.5 265.5Q718 292 738 331.5Q758 371 758 422Q758 463 747 499Q736 535 709.5 561.5Q683 588 638.5 603Q594 618 528 618H432L483 842H606Q661 842 709 854Q757 866 793 892Q829 918 849.5 958.5Q870 999 870 1055Q870 1102 854.5 1134Q839 1166 813.5 1186Q788 1206 754.5 1215Q721 1224 686 1225Q644 1226 605 1219Q566 1212 531 1200.5Q496 1189 466 1174Q436 1159 412 1143H295L344 1358Q381 1379 422 1396Q463 1413 510.5 1425.5Q558 1438 612.5 1445Q667 1452 731 1452Q809 1452 887 1434.5Q965 1417 1026.5 1374.5Q1088 1332 1126.5 1260.5Q1165 1189 1165 1081Q1165 1008 1141.5 948.5Q1118 889 1076 843.5Q1034 798 976 767Q918 736 848 721V713Q897 700 937 673Q977 646 1005.5 608Q1034 570 1049.5 521.5Q1065 473 1065 416Q1065 314 1021 233.5Q977 153 901 97.5Q825 42 723 13Q621 -16 504 -16Z" glyph-name="three" horiz-adv-x="1229" unicode="3" /><glyph d="M377 633Q293 633 222 655.5Q151 678 98 721L131 864H211Q220 853 234.5 840.5Q249 828 268.5 817Q288 806 312.5 798.5Q337 791 367 791Q418 791 449.5 814Q481 837 481 881Q481 923 455.5 945Q430 967 373 967H311L346 1114H430Q486 1114 513.5 1138.5Q541 1163 541 1200Q541 1242 518.5 1261Q496 1280 446 1280Q403 1280 369.5 1266.5Q336 1253 311 1239H233L268 1393Q305 1414 365 1431Q425 1448 494 1448Q554 1448 604 1435.5Q654 1423 690.5 1397Q727 1371 747.5 1331Q768 1291 768 1235Q768 1151 717 1103Q666 1055 575 1036V1032Q634 1018 672.5 977Q711 936 711 868Q711 812 685.5 768.5Q660 725 615 695Q570 665 509 649Q448 633 377 633ZM1409 1493H1632L344 -70H121ZM1157 162H799L840 336L1303 788H1520L1409 311H1491L1456 162H1374L1337 0H1120ZM1194 311 1251 555H1245L999 315V311Z" glyph-name="threequarters" horiz-adv-x="1581" unicode="&#190;" /><glyph d="M678 1157Q642 1157 611.5 1166Q581 1175 554.5 1185.5Q528 1196 506 1205Q484 1214 465 1214Q436 1214 419 1199Q402 1184 391 1155H238V1233Q270 1329 325.5 1377Q381 1425 463 1425Q499 1425 530 1416.5Q561 1408 587.5 1398.5Q614 1389 636.5 1380.5Q659 1372 678 1372Q706 1372 721.5 1386.5Q737 1401 750 1427H903V1350Q838 1157 678 1157Z" glyph-name="tilde" horiz-adv-x="819" unicode="&#732;" /><glyph d="M758 1481Q722 1481 691.5 1490Q661 1499 634.5 1509.5Q608 1520 586 1529Q564 1538 545 1538Q516 1538 499 1523Q482 1508 471 1479H318V1557Q350 1653 405.5 1701Q461 1749 543 1749Q579 1749 610 1740.5Q641 1732 667.5 1722.5Q694 1713 716.5 1704.5Q739 1696 758 1696Q786 1696 801.5 1710.5Q817 1725 830 1751H983V1674Q918 1481 758 1481Z" glyph-name="tilde.cap" horiz-adv-x="819" /><glyph d="M844 1434H1096L1114 1122H1116L1280 1434H1540L1407 860H1241L1343 1296H1341L1106 860H985L956 1296H954L852 860H711ZM397 1311H233L262 1434H762L733 1311H567L463 860H293Z" glyph-name="trademark" horiz-adv-x="1401" unicode="&#8482;" /><glyph d="M47 252 543 629Q604 675 662.5 726Q721 777 767 831Q813 885 841.5 942.5Q870 1000 870 1059Q870 1136 824 1174Q778 1212 678 1212Q633 1212 591 1204Q549 1196 509.5 1182.5Q470 1169 434 1151.5Q398 1134 367 1116H266L319 1348Q404 1396 508 1423Q612 1450 731 1450Q828 1450 912 1428Q996 1406 1058 1360Q1120 1314 1156 1241.5Q1192 1169 1192 1069Q1192 982 1160 907Q1128 832 1069 762.5Q1010 693 927.5 624.5Q845 556 743 483L420 250H1036L979 0H-10Z" glyph-name="two" horiz-adv-x="1229" unicode="2" /><glyph d="M840 0Q796 0 765 10.5Q734 21 714 39.5Q694 58 683.5 84Q673 110 670 141Q629 108 587.5 79.5Q546 51 500.5 29.5Q455 8 404 -4Q353 -16 295 -16Q225 -16 172 8Q119 32 87.5 78Q56 124 48 191.5Q40 259 61 346L231 1075H430Q456 1075 473.5 1069Q491 1063 499.5 1048Q508 1033 507.5 1007Q507 981 498 942L365 346Q351 281 370 250Q389 219 438 219Q492 219 554 242Q616 265 690 311L864 1075H1163L918 0H840Z" glyph-name="u" horiz-adv-x="1165" unicode="u" /><glyph d="M842 0Q798 0 767 10.5Q736 21 716 39.5Q696 58 685.5 84Q675 110 672 141Q631 108 589.5 79.5Q548 51 502.5 29.5Q457 8 406 -4Q355 -16 297 -16Q227 -16 174 8Q121 32 89.5 78Q58 124 50 191.5Q42 259 63 346L233 1075H432Q458 1075 475.5 1069Q493 1063 501.5 1048Q510 1033 509.5 1007Q509 981 500 942L367 346Q353 281 372 250Q391 219 440 219Q494 219 556 242Q618 265 692 311L866 1075H1165L920 0H842ZM608 1214 715 1434H1005V1348L770 1151H608Z" glyph-name="uacute" horiz-adv-x="1165" unicode="&#250;" /><glyph d="M842 0Q798 0 767 10.5Q736 21 716 39.5Q696 58 685.5 84Q675 110 672 141Q631 108 589.5 79.5Q548 51 502.5 29.5Q457 8 406 -4Q355 -16 297 -16Q227 -16 174 8Q121 32 89.5 78Q58 124 50 191.5Q42 259 63 346L233 1075H432Q458 1075 475.5 1069Q493 1063 501.5 1048Q510 1033 509.5 1007Q509 981 500 942L367 346Q353 281 372 250Q391 219 440 219Q494 219 556 242Q618 265 692 311L866 1075H1165L920 0H842ZM416 1227 633 1434H838L985 1227V1151H817L713 1247L567 1151H416Z" glyph-name="ucircumflex" horiz-adv-x="1165" unicode="&#251;" /><glyph d="M842 0Q798 0 767 10.5Q736 21 716 39.5Q696 58 685.5 84Q675 110 672 141Q631 108 589.5 79.5Q548 51 502.5 29.5Q457 8 406 -4Q355 -16 297 -16Q227 -16 174 8Q121 32 89.5 78Q58 124 50 191.5Q42 259 63 346L233 1075H432Q458 1075 475.5 1069Q493 1063 501.5 1048Q510 1033 509.5 1007Q509 981 500 942L367 346Q353 281 372 250Q391 219 440 219Q494 219 556 242Q618 265 692 311L866 1075H1165L920 0H842ZM522 1159Q490 1159 463.5 1170.5Q437 1182 418 1202Q399 1222 389 1248.5Q379 1275 379 1305Q379 1338 392 1366.5Q405 1395 427 1415.5Q449 1436 478.5 1448Q508 1460 540 1460Q572 1460 599 1448.5Q626 1437 645.5 1417Q665 1397 675.5 1370.5Q686 1344 686 1315Q686 1281 672.5 1252.5Q659 1224 636.5 1203Q614 1182 584 1170.5Q554 1159 522 1159ZM915 1159Q883 1159 856.5 1170.5Q830 1182 811 1202Q792 1222 782 1248.5Q772 1275 772 1305Q772 1338 785 1366.5Q798 1395 820.5 1415.5Q843 1436 872.5 1448Q902 1460 934 1460Q966 1460 993 1448.5Q1020 1437 1039 1417Q1058 1397 1068.5 1370.5Q1079 1344 1079 1315Q1079 1281 1065.5 1252.5Q1052 1224 1029.5 1203Q1007 1182 977 1170.5Q947 1159 915 1159Z" glyph-name="udieresis" horiz-adv-x="1165" unicode="&#252;" /><glyph d="M842 0Q798 0 767 10.5Q736 21 716 39.5Q696 58 685.5 84Q675 110 672 141Q631 108 589.5 79.5Q548 51 502.5 29.5Q457 8 406 -4Q355 -16 297 -16Q227 -16 174 8Q121 32 89.5 78Q58 124 50 191.5Q42 259 63 346L233 1075H432Q458 1075 475.5 1069Q493 1063 501.5 1048Q510 1033 509.5 1007Q509 981 500 942L367 346Q353 281 372 250Q391 219 440 219Q494 219 556 242Q618 265 692 311L866 1075H1165L920 0H842ZM438 1348V1434H721L799 1214V1151H618Z" glyph-name="ugrave" horiz-adv-x="1165" unicode="&#249;" /><glyph d="M-154 -141H616L571 -332H-199Z" glyph-name="underscore" horiz-adv-x="764" unicode="_" /><glyph glyph-name="uni00A0" horiz-adv-x="614" unicode="&#160;" /><glyph d="M127 997V1075H412L498 346H502L868 1075H1114V997L569 0H270Z" glyph-name="v" horiz-adv-x="1061" unicode="v" /><glyph d="M133 997V1075H414L455 397H459L776 1075H1006L1071 397H1075L1376 1075H1616V997L1128 0H870L799 670H795L481 0H215Z" glyph-name="w" horiz-adv-x="1577" unicode="w" /><glyph d="M-51 78 358 563 174 997V1075H459L588 748L856 1075H1102V997L719 553L932 78V0H647L492 367L195 0H-51Z" glyph-name="x" horiz-adv-x="1069" unicode="x" /><glyph d="M35 -252 283 115 127 997V1075H408L506 434H510L868 1075H1114V997L307 -332H35Z" glyph-name="y" horiz-adv-x="1061" unicode="y" /><glyph d="M35 -252 283 115 127 997V1075H408L506 434H510L868 1075H1114V997L307 -332H35ZM541 1214 648 1434H938V1348L703 1151H541Z" glyph-name="yacute" horiz-adv-x="1061" unicode="&#253;" /><glyph d="M35 -252 283 115 127 997V1075H408L506 434H510L868 1075H1114V997L307 -332H35ZM455 1159Q423 1159 396.5 1170.5Q370 1182 351 1202Q332 1222 322 1248.5Q312 1275 312 1305Q312 1338 325 1366.5Q338 1395 360 1415.5Q382 1436 411.5 1448Q441 1460 473 1460Q505 1460 532 1448.5Q559 1437 578.5 1417Q598 1397 608.5 1370.5Q619 1344 619 1315Q619 1281 605.5 1252.5Q592 1224 569.5 1203Q547 1182 517 1170.5Q487 1159 455 1159ZM848 1159Q816 1159 789.5 1170.5Q763 1182 744 1202Q725 1222 715 1248.5Q705 1275 705 1305Q705 1338 718 1366.5Q731 1395 753.5 1415.5Q776 1436 805.5 1448Q835 1460 867 1460Q899 1460 926 1448.5Q953 1437 972 1417Q991 1397 1001.5 1370.5Q1012 1344 1012 1315Q1012 1281 998.5 1252.5Q985 1224 962.5 1203Q940 1182 910 1170.5Q880 1159 848 1159Z" glyph-name="ydieresis" horiz-adv-x="1061" unicode="&#255;" /><glyph d="M190 791H451L266 1343V1434H555L713 885H717L1098 1434H1343V1343L928 791H1194L1153 612H807L782 500H1126L1085 322H741L668 0H352L426 322H82L123 500H467L492 612H150Z" glyph-name="yen" horiz-adv-x="1229" unicode="&#165;" /><glyph d="M-23 207 623 864H160L209 1075H1026L979 866L328 211H813L764 0H-70Z" glyph-name="z" horiz-adv-x="971" unicode="z" /><glyph d="M-23 207 623 864H160L209 1075H1026L979 866L328 211H813L764 0H-70ZM380 1358V1434H548L653 1337L798 1434H950V1358L733 1151H528Z" glyph-name="zcaron" horiz-adv-x="971" unicode="&#382;" /><glyph d="M553 -16Q426 -16 337.5 23Q249 62 193 128.5Q137 195 111.5 285Q86 375 86 477Q86 580 103 692.5Q120 805 155.5 913Q191 1021 245 1118.5Q299 1216 373 1289.5Q447 1363 541.5 1406.5Q636 1450 752 1450Q872 1450 960.5 1414.5Q1049 1379 1106.5 1312Q1164 1245 1192 1148Q1220 1051 1219 928Q1219 832 1202 724.5Q1185 617 1151 512Q1117 407 1063.5 311.5Q1010 216 936.5 143Q863 70 767.5 27Q672 -16 553 -16ZM391 465Q392 402 400 353.5Q408 305 427.5 272Q447 239 479 222Q511 205 559 205Q615 205 662.5 242Q710 279 748.5 339.5Q787 400 816.5 477.5Q846 555 866 636Q886 717 896.5 794Q907 871 907 932Q907 1000 899.5 1054.5Q892 1109 873.5 1147Q855 1185 823 1205Q791 1225 743 1225Q687 1225 638.5 1187Q590 1149 550.5 1086.5Q511 1024 481 944Q451 864 430.5 779.5Q410 695 400 613Q390 531 391 465Z" glyph-name="zero" horiz-adv-x="1229" unicode="0" /></font>
</defs>
</svg>
