<?xml version="1.0" encoding="iso-8859-1"?>
<!-- Generator: Adobe Illustrator 16.0.0, SVG Export Plug-In . SVG Version: 6.00 Build 0)  -->
<!DOCTYPE svg PUBLIC "-//W3C//DTD SVG 1.1//EN" "http://www.w3.org/Graphics/SVG/1.1/DTD/svg11.dtd">
<svg version="1.1" id="Layer_1" xmlns="http://www.w3.org/2000/svg" xmlns:xlink="http://www.w3.org/1999/xlink" x="0px" y="0px"
	 width="83.914px" height="75.097px" viewBox="0 0 83.914 75.097" style="enable-background:new 0 0 83.914 75.097;"
	 xml:space="preserve">
<path style="fill:#8AD0F2;" d="M7.578,71.308c0,2.093-1.696,3.789-3.789,3.789C1.696,75.097,0,73.4,0,71.308
	c0-2.092,1.696-3.789,3.789-3.789C5.882,67.519,7.578,69.216,7.578,71.308"/>
<path style="fill:#8AD0F2;" d="M22.017,52.844c0,2.093-1.696,3.79-3.789,3.79s-3.789-1.697-3.789-3.79
	c0-2.092,1.696-3.788,3.789-3.788S22.017,50.752,22.017,52.844"/>
<path style="fill:#8AD0F2;" d="M33.138,52.543c0,2.093-1.696,3.79-3.789,3.79c-2.093,0-3.789-1.697-3.789-3.79
	s1.696-3.788,3.789-3.788C31.442,48.755,33.138,50.45,33.138,52.543"/>
<path style="fill:#8AD0F2;" d="M55.245,23.646c0,2.093-1.695,3.789-3.789,3.789c-2.093,0-3.789-1.696-3.789-3.789
	c0-2.093,1.696-3.789,3.789-3.789C53.549,19.857,55.245,21.553,55.245,23.646"/>
<path style="fill:#8AD0F2;" d="M69.413,23.592c0,2.093-1.695,3.789-3.789,3.789c-2.092,0-3.789-1.696-3.789-3.789
	c0-2.093,1.697-3.789,3.789-3.789C67.717,19.804,69.413,21.5,69.413,23.592"/>
<path style="fill:#8AD0F2;" d="M83.914,3.789c0,2.093-1.696,3.789-3.789,3.789s-3.789-1.696-3.789-3.789
	C76.335,1.696,78.032,0,80.125,0S83.914,1.696,83.914,3.789"/>
<path style="fill:none;stroke:#8AD0F2;stroke-width:4;stroke-miterlimit:10;" d="M80.262,3.101c0,0-13.855,20.845-14.354,20.97
	c-0.499,0.124-14.452-0.426-14.452-0.426L28.837,53.029l-11.234-0.25L3.124,71.876"/>
<g>
</g>
<g>
</g>
<g>
</g>
<g>
</g>
<g>
</g>
<g>
</g>
</svg>
